<?xml version="1.0" encoding="iso-8859-1"?>
<!-- Generator: Adobe Illustrator 22.1.0, SVG Export Plug-In . SVG Version: 6.00 Build 0)  -->
<svg version="1.1" id="Layer_1" xmlns="http://www.w3.org/2000/svg" xmlns:xlink="http://www.w3.org/1999/xlink" x="0px" y="0px"
	 viewBox="0 0 767.89 860.276" style="enable-background:new 0 0 767.89 860.276;" xml:space="preserve">
<g>
	<g>
		<path style="fill:#FDFDFD;" d="M393,858.276c-126.167,0-252.333-0.019-378.5,0.094c-3.75,0.003-4.602-0.844-4.595-4.594
			c0.126-78.5,0.095-157,0.095-235.5c0.342-0.007,0.684-0.014,1.026-0.021c2.169,1.802,4.685,2.595,7.42,1.981
			c14.218-3.191,24.452-15.98,24.452-30.47c0.003-116.659,0.033-233.317-0.111-349.976c-0.006-4.761,1.327-7.386,5.518-9.799
			C158.999,166.251,269.618,102.38,380.192,38.431c3.127-1.808,5.291-1.89,8.488-0.039
			c110.851,64.142,221.762,128.18,332.726,192.126c3.451,1.989,4.819,4.049,4.815,8.139c-0.121,127.992-0.122,255.985,0.005,383.977
			c0.004,4.113-1.401,6.168-4.823,8.137c-66.398,38.21-132.861,76.31-199.02,114.932c-40.076,23.396-81.913,44.016-117.896,74.018
			c-7.444,6.207-14.685,12.545-21.365,19.527c-4.61,4.818-5.358,10.36-1.353,13.624c3.078,2.508,6.633,5.157,11.23,4.44
			C393.001,857.633,393.001,857.954,393,858.276z M173.967,670.559c1.285-0.885,2.571-1.77,3.856-2.655
			c0.104,2.815,0.713,5.723,0.214,8.426c-1.258,6.812-0.261,13.338,0.957,20.022c0.435,2.388,1.137,3.921,2.837,5.309
			c7.822,6.39,15.376,13.146,23.524,19.088c8.075,5.888,15.528,13.154,26.129,14.631c1.532,2.429,3.879,3.642,6.541,4.388
			c1.147,1.007,1.042,2.356,1.042,3.696c-0.005,7.808,0.571,15.667-0.13,23.411c-0.849,9.371,3.176,14.636,11.196,18.895
			c14.547,7.725,29.903,13.668,44.536,21.146c18.327,9.365,36.263,19.536,55.695,26.574c2.742,0.993,5.585,2.814,8.535,1.098
			c7.038-4.092,14.3-7.921,20.842-12.715c16.345-11.98,32.605-24.107,48.392-36.806c13.234-10.645,27.891-19.479,40.512-30.744
			c19.284-17.211,40.38-32.056,60.63-47.974c13.566-10.663,26.004-22.685,40.549-32.263c11.579-7.625,20.639-18.612,30.551-28.385
			c3.663-3.611,7.124-7.457,10.401-11.423c8.669-10.491,13.07-23.452,19.934-35c2.954-4.971,5.565-10.193,7.831-15.514
			c4.587-10.77,6.425-22.329,8.631-33.716c1.188-6.136,4.037-12.245,2.66-18.619c-1.382-6.394-1.943-12.65-0.829-19.129
			c2.058-11.971,1.524-24.201,3.231-36.192c2.373-16.664-1.767-31.618-10.747-45.499c-1.964-3.036-4.549-5.248-8.452-5.246
			c-2.368-3.568-5.706-6.208-8.741-9.138c-0.29-2.988-1.496-4.869-4.919-4.071c-1.749-3.039-4.401-4.926-7.676-6.019
			c0.075-3.171-1.054-5.381-3.787-7.47c-6.158-4.708-12.509-9.103-18.84-13.564c-17.881-12.598-37.962-20.329-58.521-26.91
			c-12.974-4.153-26.66-5.21-40.041-7.565c-4.376-0.77-8.888-1.398-13.287,0.23c-3.803-2.518-8.112-2.61-12.444-2.591
			c-4.711-3.443-10.129-5.041-15.819-5.274c-18.218-0.747-36.096-2.431-52.567-11.535c-11.455-6.332-23.807-11.066-33.227-20.715
			c-2.029-2.079-2.127-3.417-0.954-5.938c5.248-11.276,14.087-19.294,23.848-26.334c6.61-4.766,13.716-8.896,22.145-9.795
			c1.128-0.12,2.189-0.759,3.376-0.076c5.149,2.964,11.014,4.581,15.643,8.546c18.084,15.49,40.942,22.655,60.955,34.798
			c4.206,2.552,7.441,0.062,8.337-4.789c2.876-15.572-1.156-31.318,2.23-47.09c2.219-10.338,0.392-21.553,0.316-32.374
			c-0.196-27.925-0.456-55.849-0.615-83.774c-0.028-4.975,0.301-9.952,0.467-14.927c0.114-3.431-1.283-6.243-4.772-6.514
			c-8.086-0.626-16.011-2.747-24.252-2.05c-15.409,1.304-30.773,3.124-46.255,3.656c-16.342,0.561-32.299,4.354-48.464,6.445
			c-13.203,1.708-26.329,4.184-39.058,7.88c-19.262,5.592-38.728,9.284-58.747,10.015c-6.568,0.24-11.23,3.84-11.412,10.306
			c-0.21,7.456,1.209,15.018,0.454,22.384c-0.957,9.338,0.057,16.577,10.83,18.07c-0.11,1.687-0.923,2.032-1.629,2.429
			c-12.442,7.001-23.85,15.616-35.912,23.166c-21.455,13.43-41.036,28.991-58.097,47.617c-5.084,5.55-9.947,11.485-12.529,18.915
			c-5.007,14.408-5.27,29.318-5.129,44.281c0.076,8.119-1.449,16.506,1.149,24.291c4.575,13.709,9.85,27.097,19.923,38.15
			c10.491,11.512,20.681,23.098,36.323,27.82c4.282,1.293,8.39,3.11,12.449,5.067c9.432,4.548,18.977,8.898,29.078,11.787
			c19.814,5.666,39.898,10.422,59.44,17c14.249,4.797,27.601,11.091,34.086,26.164c0.975,2.265,2.737,3.244,5.191,2.966
			c0.71,1.653,0.458,3.189-0.403,4.743c-1.689,3.05-2.02,6.269-0.931,9.607c-15.477,7.896-31.335,14.935-47.647,20.92
			c-21.5,7.888-43.45,14.388-65.292,21.242c-19.62,6.157-39.507,11.474-58.85,18.526c-5.474,1.996-11.418,2.749-16.241,6.392
			c-0.884,0.103-1.248,0.629-1.207,1.484c-2.67,0.426-4.278,1.618-3.69,4.684c1.202,6.274,0.44,12.382-0.603,18.695
			c-1.677,10.149,0.007,14.308,5.766,17.769c10.909,6.557,21.195,14.174,33.678,17.721c0.9,0.256,2.068,0.663,1.79,1.982
			c-0.246,1.169-1.437,1.206-2.35,1.488c-6.229,1.921-11.936,4.829-17.29,8.572c-2.829,1.978-5.767,3.939-9.212,4.832
			c-1.201-0.649-2.312-1.551-3.813-1.361c3.742-1.762,7.503-3.484,11.218-5.3c2.544-1.243,3.686-3.653,1.808-5.683
			c-3.105-3.357-6.461-7.073-10.498-8.831c-5.314-2.314-10.272-5.261-15.498-7.695c-11.42-5.321-22.228-11.833-33.744-17.091
			c-7-3.196-12.588-4.233-19.714-1.299c-11.193,4.61-23.129,7.227-34.163,12.437c-8.712,4.114-17.649,7.866-27.071,10.06
			c-5.001,1.165-9.049,3.372-9.075,8.724c-0.035,7.251,0.841,14.52,1.636,21.748c0.133,1.211,1.66,2.49,2.835,3.331
			c13.413,9.605,28.252,16.747,42.652,24.658c9.571,5.257,19.739,9.504,28.317,16.5c1.78,1.451,3.725,2.411,6.355,1.068
			c15.365-7.847,30.792-15.574,46.258-23.22C169.317,674.193,171.884,672.772,173.967,670.559z M631.703,254.139
			c-0.012-1.678-0.912-2.47-2.4-2.762c-2.767-0.543-5.199,0.074-7.534,1.709c-11.593,8.113-23.808,15.251-35.796,22.747
			c-7.897,4.938-15.631,10.136-23.432,15.227c-1.104,0.72-2.485,1.383-2.191,3c0.304,1.674,1.847,2.224,3.187,2.898
			c1.913,0.961,3.484,0.192,5.121-0.818c20.219-12.47,40.84-24.304,60.202-38.128C630.257,257.016,631.248,255.741,631.703,254.139z
			 M71.991,476.146c12.281-0.664,25.399-3.13,38.457-6.414c8.375-2.106,15.742-7.134,24.55-7.857
			c2.233-0.183,1.835-1.849,0.79-3.317c-2.639-3.709-6.11-3.512-9.775-2.043c-20.364,8.161-41.255,13.496-63.444,11.941
			c-1.589-0.111-3.143,0.048-3.763,1.709c-0.708,1.897,0.651,3.144,1.936,4.196C63.75,476.823,67.376,475.977,71.991,476.146z
			 M611.837,339.262c16.766-2.253,34.101-3.808,51.47-4.964c3.083-0.205,5.486-1.137,5.461-4.401
			c-0.029-3.703-3.198-3.807-5.855-3.695c-4.627,0.195-9.242,0.68-13.859,1.067c-13.054,1.093-26.153,1.8-39.066,4.147
			c-2.576,0.468-5.831,1.635-5.638,4.561c0.183,2.769,3.455,3.079,5.991,3.282C610.671,339.285,611.005,339.262,611.837,339.262z
			 M140.172,535.871c2.77-0.578,5.343-1.635,7.86-2.984c13.771-7.377,27.08-15.53,40.327-23.792
			c2.041-1.273,5.128-2.118,3.248-5.464c-1.702-3.029-4.357-2.515-6.908-1.01c-15.3,9.021-30.305,18.56-46.414,26.157
			c-1.442,0.68-3.75,1.594-2.932,3.97C136.066,534.825,138.13,535.433,140.172,535.871z M60.205,374.724
			c-2.333-0.538-3.641,0.037-4.422,1.536c-0.782,1.502,0.301,2.493,1.2,3.469c1.3,1.412,3.041,1.932,4.831,2.404
			c10.495,2.772,21.169,4.043,32.019,4.031c5.635-0.006,11.334-0.488,16.798,1.438c1.774,0.625,3.412,0.762,4.148-1.253
			c0.653-1.788-0.284-3.463-1.832-4.208c-1.906-0.917-4.037-1.591-6.135-1.848C91.061,378.366,74.901,379.828,60.205,374.724z
			 M61.983,273.395c-1.605,0.014-2.659,0.553-3.373,1.497c-1.083,1.432,0.007,2.492,0.899,3.458
			c4.711,5.1,11.084,7.798,16.739,11.538c9.002,5.953,17.652,12.388,26.211,18.96c1.853,1.423,4.802,3.135,6.565,0.331
			c1.54-2.449-1.587-3.509-3.059-4.865c-12.76-11.758-27.949-20.081-42.175-29.768C63.119,274.088,62.42,273.672,61.983,273.395z
			 M539.781,244.016c1.542,0.113,2.358-0.826,3.198-1.965c4.662-6.324,10.301-11.697,16.222-16.836
			c3.124-2.712,6.031-5.753,8.602-8.991c1.251-1.576,2.031-3.921-0.582-5.636c-2.117-1.39-3.493-0.747-5.153,0.889
			c-4.382,4.319-9.078,8.322-13.416,12.683c-4.096,4.118-8.627,7.891-11.668,12.951
			C535.276,239.951,536.927,243.826,539.781,244.016z M128.826,205.502c-1.664-0.032-2.572,0.755-3.095,1.801
			c-0.813,1.627,0.291,2.926,1.253,3.996c3.303,3.673,7.305,6.573,10.469,10.511c3.91,4.868,8.82,8.954,13.449,13.213
			c1.333,1.227,3.433,2.028,4.974,0.517c1.775-1.741,0.231-3.262-1.04-4.655c-7.694-8.438-15.361-16.901-24.301-24.08
			C129.907,206.302,129.255,205.829,128.826,205.502z M641.747,245.294c0.842-0.476,2.164-1.133,3.394-1.931
			c7.364-4.779,14.761-9.501,22.542-13.587c1.789-0.94,3.992-1.831,2.584-4.391c-1.263-2.295-3.023-4.01-6.027-2.099
			c-6.711,4.27-13.507,8.404-20.215,12.678c-1.805,1.15-3.492,2.52-5.095,3.943c-1.093,0.971-1.185,2.36-0.572,3.674
			C638.893,244.725,639.886,245.281,641.747,245.294z M111.532,555.821c-0.036-2.003-2.105-3.431-4.881-2.817
			c-9.882,2.188-18.658,6.79-26.71,12.82c-1.534,1.149-2.67,2.538-0.972,4.584c1.406,1.694,2.925,2.154,4.768,0.941
			c7.94-5.227,16.526-9.167,25.259-12.831C110.187,558.019,111.545,557.522,111.532,555.821z M170.208,441.38
			c-7.067,2.26-15.107,4.271-22.086,8.97c-1.572,1.058-3.838,1.782-2.362,4.524c1.41,2.62,3.859,3.156,5.875,1.724
			c6.353-4.513,13.464-6.941,20.891-8.805c1.535-0.385,3.461-1.195,3.029-3.317C175.103,442.248,173.319,441.329,170.208,441.38z
			 M225.878,482.245c-6.627,3.349-14.615,5.751-20.909,11.367c-1.212,1.081-1.43,2.54-0.137,3.948
			c1.398,1.522,2.923,1.466,4.419,0.364c5.782-4.261,12.338-7.003,18.867-9.822c1.438-0.621,3.468-1.196,2.692-3.436
			C230.209,482.931,228.533,482.423,225.878,482.245z M664.477,393.107c3.326,0.186,5.585,0.335,6.455-2.342
			c0.409-1.259-0.159-2.535-1.375-2.816c-7.067-1.635-13.733-4.816-21.025-5.525c-1.983-0.193-3.656,0.77-4.109,2.826
			c-0.495,2.248,1.688,2.911,2.997,3.323C653.384,390.453,659.335,392.48,664.477,393.107z M278.802,505.938
			c-0.198-1.553-1.112-2.253-2.192-2.762c-1.862-0.877-3.624-0.747-4.902,0.99c-2.652,3.606-5.287,7.228-7.769,10.951
			c-0.9,1.35-3.087,2.936-1.097,4.63c1.724,1.468,3.816,0.657,5.293-1.023c3.283-3.735,6.523-7.508,9.755-11.288
			C278.304,506.951,278.566,506.334,278.802,505.938z M215.188,195.319c-0.311-0.724-0.777-2.57-1.794-4.032
			c-2.653-3.815-5.515-7.488-8.363-11.164c-1.055-1.361-2.511-2.66-4.249-1.524c-1.821,1.191-0.891,3.183-0.135,4.5
			c2.892,5.039,6.303,9.745,10.06,14.184c0.952,1.125,2.339,1.213,3.692,0.983C215.469,198.084,215.562,197.26,215.188,195.319z
			 M137.772,391.345c0.016-0.102,0.031-0.204,0.047-0.305c0.997,0,2.005,0.09,2.99-0.019c2.05-0.225,4.48-0.998,4.464-3.063
			c-0.015-1.982-2.593-2.311-4.398-2.315c-3.837-0.008-7.591-0.274-11.337-1.267c-1.374-0.364-3.718-0.959-4.207,1.282
			c-0.384,1.764,1.177,3.294,2.741,3.739C131.234,390.298,134.531,390.724,137.772,391.345z M126.355,546.958
			c2.725-0.578,3.965-2.562,4.155-4.958c0.213-2.689-2.31-3.189-4.112-3.277c-1.89-0.093-4.358,0.639-4.164,3.174
			C122.412,544.222,123.876,546.171,126.355,546.958z M125.773,321.972c-0.468-2.335-1.947-3.394-4.158-3.582
			c-2.056-0.175-3.637,0.206-3.584,2.818c0.044,2.178,0.615,4.318,2.962,4.432C123.202,325.746,124.9,324.155,125.773,321.972z
			 M586.373,338.21c-1.687,0.173-3.259,0.834-3.103,2.959c0.182,2.476,1.733,3.907,4.229,4.064c1.926,0.121,3.427-0.662,3.134-2.834
			C590.325,340.12,589.235,338.277,586.373,338.21z M683.477,394.341c-0.437-2.205-1.344-4.237-3.748-4.693
			c-1.881-0.357-3.346,0.946-3.391,2.777c-0.05,2.09,1.049,3.847,3.347,4.317C681.617,397.136,682.835,396.202,683.477,394.341z
			 M242.474,475.977c1.375-0.356,2.538-1.113,2.357-2.932c-0.209-2.101-1.729-2.542-3.516-2.5c-1.388,0.032-2.887,0.336-2.734,2.019
			C238.764,474.565,240.325,475.558,242.474,475.977z"/>
		<path style="fill:#03A19F;" d="M393.001,857.312c-4.597,0.716-8.153-1.933-11.23-4.44c-4.005-3.263-3.257-8.806,1.353-13.624
			c6.68-6.981,13.921-13.32,21.365-19.527c35.982-30.003,77.82-50.623,117.896-74.018c66.158-38.622,132.622-76.722,199.02-114.932
			c3.422-1.969,4.827-4.023,4.823-8.137c-0.128-127.992-0.127-255.985-0.005-383.977c0.004-4.09-1.364-6.15-4.815-8.139
			C610.442,166.572,499.532,102.533,388.68,38.392c-3.198-1.85-5.361-1.769-8.488,0.039
			C269.618,102.38,158.999,166.251,48.304,229.99c-4.191,2.413-5.524,5.038-5.518,9.799c0.145,116.659,0.115,233.317,0.111,349.976
			c0,14.49-10.235,27.278-24.452,30.47c-2.735,0.614-5.251-0.179-7.42-1.981c0.027-1.664,0.078-3.327,0.078-4.991
			c0.004-125.187,0.005-250.373-0.003-375.56c0-5.154-0.096-10.309-0.148-15.463c1.287-6.603,5.606-10.644,11.203-13.872
			c103.41-59.631,206.791-119.311,310.177-178.982c16.225-9.365,32.445-18.74,48.667-28.111c2,0,4,0,6,0
			c3.904,2.056,7.881,3.984,11.7,6.187c85.687,49.427,171.357,98.882,257.028,148.336c29.999,17.317,59.991,34.647,89.99,51.965
			c5.127,2.96,9.964,6.164,11.264,12.551c0.005,140.317,0.009,280.634,0.014,420.951c-1.307,6.224-6.152,9.194-11.105,12.054
			c-91.425,52.79-182.858,105.565-274.272,158.374C445.384,826.849,419.206,842.103,393.001,857.312z"/>
		<path style="fill:#FDFEFE;" d="M381,1.276c-16.222,9.37-32.442,18.746-48.667,28.111
			C228.947,89.058,125.565,148.738,22.156,208.369c-5.598,3.228-9.917,7.269-11.203,13.872c-0.32-0.05-0.637-0.038-0.953,0.035
			c0-72.272,0.04-144.545-0.112-216.817C9.88,1.68,10.878,1.19,14.31,1.193C136.54,1.292,258.77,1.276,381,1.276z"/>
		<path style="fill:#FDFEFE;" d="M756.982,220.315c-1.3-6.387-6.137-9.592-11.264-12.552c-29.999-17.318-59.99-34.648-89.99-51.965
			C570.057,106.345,484.387,56.889,398.7,7.462c-3.819-2.203-7.796-4.131-11.7-6.187c122.167,0,244.333,0.02,366.5-0.094
			c3.749-0.004,4.603,0.844,4.596,4.594c-0.13,71.5-0.096,143-0.096,214.5C757.661,220.289,757.321,220.302,756.982,220.315z"/>
		<path style="fill:#FDFEFE;" d="M393.001,857.312c26.204-15.209,52.383-30.463,78.617-45.618
			C563.032,758.884,654.466,706.11,745.89,653.32c4.953-2.86,9.799-5.829,11.105-12.054c0.335,0.003,0.669,0.006,1.004,0.01
			c0,70.939-0.04,141.878,0.112,212.817c0.008,3.779-0.991,4.269-4.422,4.266c-120.23-0.099-240.46-0.083-360.69-0.083
			C393.001,857.954,393.001,857.633,393.001,857.312z"/>
		<path style="fill:#27AEAC;" d="M758,641.276c-0.335-0.003-0.669-0.006-1.004-0.01c-0.005-140.317-0.009-280.634-0.014-420.951
			c0.339-0.013,0.679-0.026,1.018-0.039C758,360.609,758,500.942,758,641.276z"/>
		<path style="fill:#92D5D5;" d="M10,222.276c0.315-0.074,0.633-0.086,0.953-0.035c0.051,5.154,0.147,10.309,0.148,15.463
			c0.008,125.187,0.007,250.373,0.003,375.56c0,1.664-0.051,3.327-0.078,4.991c-0.342,0.007-0.684,0.014-1.026,0.021
			C10,486.276,10,354.276,10,222.276z"/>
		<path style="fill:#BDEEEB;" d="M611.698,406.133c3.275,1.093,5.927,2.98,7.676,6.019c-1.148,1.828-3.464,3.291-1.875,5.975
			c0.709,1.198,1.88,2.201,3.106,2.14c2.313-0.115,2.928-2.25,3.689-4.044c3.035,2.93,6.373,5.57,8.741,9.139
			c-4.946,2.265-3.346,5.611-1.421,8.933c5.512,9.512,11.248,18.991,10.857,30.532c-0.321,9.459-1.522,18.908-1.482,28.357
			c0.09,21.128-6.349,40.419-15.128,59.249c-2.27,4.87-5.566,9.557-5.252,15.377c-2.607,2.869-2.981,6.917-5.256,9.962
			c-5.727,0.095-8.309,3.259-7.346,9.001c-1.092,1.925-2.184,3.85-3.276,5.776c-2.371-1.189-4.469-0.997-6.167,1.22
			c-8.232,10.754-18.232,19.79-28.337,28.667c-19.227,16.889-38.539,33.687-58.059,50.236c-11.022,9.344-22.533,18.11-33.812,27.151
			c-2.235,1.792-4.752,3.548-2.201,6.892c-3.309,2.457-6.618,4.914-9.927,7.371c-1.97-1.459-3.973-2.378-6.297-0.647
			c-2.293,1.708-1.277,3.74-0.654,5.751c-4.237,3.017-8.799,5.59-12.584,9.224c-1.888-0.013-3.539,0.555-5.107,1.663
			c-4.48,3.165-9.184,6.029-13.529,9.364c-22.696,17.422-45.917,34.12-69.336,50.548c-1.742,1.222-3.198,2.732-5.792,1.489
			c-12.585-6.036-25.35-11.703-37.858-17.891c-16.69-8.258-33.216-16.849-49.781-25.358c-4.581-2.353-9.081-4.871-13.556-7.422
			c-1.232-0.702-3.023-1.797-0.927-3.333c4.214-3.088,7.367-7.532,12.938-8.912c7.173-1.777,10.473-8.265,7.031-13.347
			c-1.83-2.702-4.056-5.382-6.683-7.26c-15.403-11.011-30.335-22.714-46.779-32.218c-9.662-5.585-19.2-11.335-27.239-19.257
			c-1.787-1.761-2.674-2.788,0.025-4.361c7.457-4.347,14.735-8.936,22.729-12.389c8.531-3.685,16.812-8.001,24.768-12.865
			c8.712-5.326,8.664-9.026-0.171-14.799c-1.254-0.819-2.544-1.591-3.858-2.31c-5.833-3.192-11.696-6.331-17.521-9.537
			c-15.588-8.58-30.685-17.94-45.039-28.473c-0.042-0.856,0.323-1.381,1.206-1.485c3.086,0.967,6.098,0.73,9.193-0.194
			c9.551-2.852,19.131-5.609,28.722-8.321c18.818-5.321,37.83-10.031,56.434-16.013c24.496-7.876,48.928-16.034,72.618-26.198
			c7.311-3.137,15.12-5.178,21.745-9.804c1.517-1.059,4.753-2.014,1.102-4.479c3.702-0.252,7.32-0.695,9.618-4.178
			c2.427,0.863,4.504-0.092,5.967-1.798c0.83-0.968-1.084-1.694-1.385-2.727c1.274-1.839,2.549-3.678,3.823-5.517
			c6.043-1.28,8.569-6.341,9.725-11.19c4.217-17.69-11.695-36.844-30.525-37.442c-3.299-1.129-6.599-2.259-9.898-3.388
			c-0.746-2.893-2.382-4.109-5.594-4.279c-27.512-1.454-53.735-7.952-78.481-20.275c-15.901-7.918-31.145-16.821-44.935-28.092
			c-2.604-2.129-5.314-4.122-8.96-2.273c-2.091-2.192-3.96-4.617-6.572-6.263c0.268-5.178-1.223-6.972-6.727-8.093
			c-1.708-2.494-3.415-4.988-5.123-7.482c0.13-2.806-2.251-3.95-3.756-5.675c-1.711-3.044-3.142-6.292-6.141-8.393l0.039,0.067
			c0.241-1.106-0.382-1.761-1.207-2.311c-2.48-4.831-5.531-9.256-7.295-14.586c-6.927-20.929-2.083-38.754,12.874-54.395
			c19.672-20.571,41.971-37.963,66.548-52.043c22.057-12.636,44.26-25.183,67.731-35.18c3.313-1.411,6.997-3.023,7.159-6.839
			c0.157-3.701-4.041-4.339-6.677-5.853c-8.516-4.892-18.251-7.132-26.672-12.291c-3.697-2.265-7.604-4.168-11.241-7.295
			c1.067-0.402,1.501-0.682,1.955-0.719c23.79-1.95,46.74-8.423,69.852-13.697c16.115-3.677,32.551-4.639,48.642-8.074
			c13.711-2.927,27.801-2.249,41.69-3.592c12.409-1.2,24.845-1.853,37.336-1.83c4.78,0.009,5.281,1.918,5.306,5.86
			c0.149,23.591,0.602,47.18,0.782,70.771c0.132,17.266,0.014,34.534-0.041,51.8c-0.003,1.033,0.757,2.341-0.929,3.249
			c-5.705-4.484-12.669-6.825-19.185-10.023c-16.086-7.895-31.621-16.952-48.829-22.493c-6.191-1.993-11.801-2.536-17.624,0.774
			c-3.748,2.131-7.994,3.437-11.596,5.764c-12.197,7.882-25.682,13.733-35.856,24.784c-15.167,16.473-13.636,39.638,0.211,55.137
			c6.552,7.334,14.903,11.602,23.141,16.163c14.693,8.136,29.644,15.871,46.523,18.421c10.185,1.539,20.65,0.952,30.713,3.464
			c4.768,1.19,7.294-0.403,8.363-4.957c4.332-0.02,8.64,0.073,12.443,2.591c-2.05,4.192-1.41,5.102,3.949,6.089
			c19.854,3.656,39.797,6.639,58.974,13.577c23.633,8.551,45.679,19.629,64.789,36.115
			C607.535,408.88,609.661,409.268,611.698,406.133z"/>
		<path style="fill:#090C0C;" d="M464.779,348.263c-1.07,4.553-3.595,6.147-8.363,4.957c-10.063-2.511-20.528-1.925-30.713-3.464
			c-16.879-2.55-31.83-10.285-46.523-18.421c-8.238-4.562-16.589-8.829-23.141-16.163c-13.847-15.499-15.377-38.664-0.211-55.137
			c10.174-11.051,23.659-16.901,35.856-24.784c3.602-2.327,7.848-3.633,11.596-5.764c5.823-3.311,11.433-2.768,17.624-0.774
			c17.209,5.54,32.744,14.598,48.829,22.493c6.516,3.198,13.48,5.539,19.185,10.023c1.686-0.908,0.926-2.216,0.929-3.249
			c0.055-17.267,0.173-34.535,0.041-51.8c-0.18-23.591-0.632-47.18-0.782-70.771c-0.025-3.943-0.526-5.851-5.306-5.86
			c-12.491-0.023-24.927,0.63-37.336,1.83c-13.889,1.343-27.979,0.666-41.69,3.592c-16.091,3.435-32.527,4.397-48.642,8.074
			c-23.112,5.274-46.062,11.747-69.852,13.697c-0.454,0.037-0.888,0.318-1.955,0.719c3.637,3.127,7.544,5.03,11.241,7.295
			c8.42,5.159,18.156,7.399,26.672,12.291c2.636,1.514,6.834,2.152,6.677,5.853c-0.162,3.816-3.846,5.428-7.159,6.839
			c-23.471,9.997-45.674,22.544-67.731,35.18c-24.577,14.08-46.877,31.472-66.548,52.043
			c-14.957,15.641-19.802,33.465-12.874,54.395c1.764,5.33,4.814,9.755,7.296,14.59c-0.105,1.037,0.076,1.92,1.206,2.307
			c0,0-0.039-0.067-0.039-0.067c-0.085,1.413,0.502,3.076-1.605,3.656c-2.063,0.567-3.48-0.419-4.922-1.676
			c-2.369-2.065-2.481-5.723-5.138-7.606c-1.407,1.142-1.536,2.525-1.255,3.81c1.229,5.618,1.654,11.293,3.54,16.911
			c6.385,19.03,18.791,33.332,33.577,46.124c7.793,6.742,17.352,9.375,26.712,12.729c14.973,5.366,29.142,12.77,44.913,16.179
			c13.442,2.906,26.513,7.483,39.875,10.814c11.626,2.898,22.463,7.273,31.934,14.65c7.607,5.925,14.567,15.623,10.882,25.055
			c-2.454,0.278-4.216-0.7-5.191-2.966c-6.485-15.073-19.837-21.367-34.086-26.164c-19.542-6.579-39.625-11.334-59.44-17
			c-10.101-2.888-19.646-7.239-29.078-11.787c-4.059-1.957-8.167-3.774-12.449-5.067c-15.642-4.722-25.832-16.308-36.323-27.82
			c-10.072-11.053-15.348-24.441-19.923-38.15c-2.598-7.785-1.073-16.172-1.149-24.291c-0.14-14.963,0.122-29.873,5.129-44.281
			c2.582-7.43,7.445-13.365,12.529-18.915c17.061-18.626,36.642-34.187,58.097-47.617c12.061-7.55,23.47-16.165,35.912-23.166
			c0.706-0.397,1.519-0.743,1.629-2.429c-10.774-1.493-11.788-8.732-10.83-18.07c0.755-7.366-0.664-14.928-0.454-22.384
			c0.182-6.466,4.844-10.066,11.412-10.306c20.019-0.732,39.486-4.423,58.747-10.015c12.729-3.695,25.855-6.172,39.058-7.88
			c16.165-2.091,32.122-5.884,48.464-6.445c15.482-0.532,30.845-2.352,46.255-3.656c8.241-0.697,16.167,1.423,24.252,2.05
			c3.489,0.27,4.886,3.082,4.772,6.514c-0.166,4.976-0.495,9.953-0.467,14.927c0.16,27.925,0.419,55.849,0.615,83.774
			c0.076,10.822,1.903,22.036-0.316,32.374c-3.385,15.772,0.647,31.518-2.23,47.09c-0.896,4.851-4.13,7.341-8.337,4.789
			c-20.014-12.143-42.872-19.308-60.955-34.798c-4.629-3.965-10.494-5.581-15.643-8.546c-1.187-0.683-2.248-0.045-3.376,0.076
			c-8.429,0.899-15.535,5.028-22.145,9.795c-9.762,7.039-18.6,15.058-23.848,26.334c-1.174,2.522-1.076,3.86,0.954,5.938
			c9.42,9.649,21.772,14.383,33.227,20.715c16.472,9.104,34.35,10.788,52.567,11.535
			C454.65,343.221,460.068,344.819,464.779,348.263z M488.521,285.025c-0.134,0-0.267,0.001-0.401,0.001
			c0-3.326-0.354-6.701,0.096-9.966c0.478-3.469-0.974-4.778-3.871-6.286c-16.061-8.359-32.302-16.389-47.93-25.563
			c-4.769-2.8-10.105-4.147-15.353-5.699c-2.838-0.839-4.358-0.225-4.426,3.148c-0.104,5.145-0.406,10.3-0.934,15.419
			c-0.43,4.168,0.997,6.379,5.189,7.478c3.161,0.829,6.109,2.595,8.723,4.715c16.497,13.384,35.886,21.69,54.596,31.205
			c3.26,1.658,4.225,0.525,4.29-2.496C488.585,292.997,488.521,289.01,488.521,285.025z M355.955,298.427
			c0.622-0.361,1.014-0.455,1.17-0.699c11.433-17.879,26.616-30.745,47.717-35.672c2.225-0.52,2.906-1.877,2.916-3.95
			c0.03-5.976-0.093-11.958,1.014-17.881c0.548-2.931-0.758-3.621-3.349-2.471c-1.214,0.539-2.46,1.006-3.683,1.523
			c-12.143,5.133-22.871,12.804-34.285,19.238C352.688,266.84,350.644,283.777,355.955,298.427z M316.274,181.027
			c-14.514-4.77-26.901-10.632-38.608-17.916c-2.144-1.334-2.476,0.37-2.481,2.082c-0.017,6.651-0.188,13.306-0.025,19.952
			c0.112,4.592,9.347,10.873,13.091,9.113C297.078,190.109,305.891,185.931,316.274,181.027z"/>
		<path style="fill:#070B0B;" d="M171.008,571.746c14.354,10.533,29.451,19.893,45.039,28.473
			c5.825,3.206,11.688,6.345,17.521,9.537c1.314,0.719,2.604,1.49,3.858,2.31c8.835,5.774,8.883,9.473,0.171,14.799
			c-7.956,4.864-16.237,9.18-24.768,12.865c-7.993,3.453-15.271,8.043-22.729,12.389c-2.699,1.573-1.812,2.6-0.025,4.361
			c8.039,7.922,17.577,13.672,27.239,19.257c16.444,9.504,31.376,21.207,46.779,32.218c2.627,1.878,4.852,4.557,6.683,7.26
			c3.442,5.083,0.142,11.57-7.031,13.347c-5.571,1.38-8.724,5.825-12.938,8.912c-2.096,1.536-0.305,2.63,0.927,3.333
			c4.475,2.551,8.975,5.069,13.556,7.422c16.565,8.508,33.091,17.1,49.781,25.358c12.508,6.189,25.273,11.855,37.858,17.891
			c2.593,1.244,4.05-0.267,5.792-1.489c23.419-16.428,46.64-33.126,69.336-50.548c4.345-3.335,9.05-6.199,13.529-9.364
			c1.568-1.108,3.22-1.676,5.11-1.663c3.507,4.133,3.447,6.121-0.839,9.218c-6.864,4.959-13.936,9.629-20.824,14.555
			c-19.583,14.002-39.128,28.057-58.657,42.135c-2.396,1.728-5.111,3.55-4.859,6.968c0.235,3.194-0.236,6.306-0.308,9.452
			c-0.108,4.689-0.517,9.43,0.392,14.461c0.983-0.571,1.53-0.902,2.089-1.211c17.011-9.421,31.269-22.612,46.403-34.521
			c24.551-19.32,49.033-38.732,72.904-58.946c19.764-16.735,41.216-31.528,60.967-48.364c15.258-13.005,32.389-23.495,46.362-38.364
			c21.378-22.749,36.91-48.214,44.166-78.581c1.257-5.26,1.687-10.717,2.499-16.083c-3.544,5.103-6.324,10.362-9.364,15.467
			c-1.503,2.524-3.664,4.369-7.018,3.21c-0.313-5.82,2.982-10.507,5.252-15.377c8.779-18.831,15.218-38.122,15.128-59.249
			c-0.04-9.449,1.161-18.898,1.482-28.357c0.391-11.542-5.345-21.02-10.857-30.532c-1.925-3.322-3.524-6.668,1.421-8.933
			c3.904-0.003,6.489,2.21,8.453,5.245c8.98,13.881,13.121,28.835,10.747,45.499c-1.708,11.991-1.173,24.222-3.231,36.192
			c-1.114,6.479-0.553,12.735,0.829,19.129c1.377,6.374-1.471,12.483-2.66,18.619c-2.206,11.387-4.044,22.947-8.631,33.716
			c-2.266,5.321-4.877,10.544-7.831,15.514c-6.864,11.548-11.266,24.509-19.934,35c-3.277,3.966-6.739,7.812-10.401,11.423
			c-9.911,9.772-18.972,20.76-30.551,28.385c-14.545,9.578-26.983,21.6-40.549,32.263c-20.25,15.918-41.346,30.763-60.63,47.974
			c-12.621,11.265-27.278,20.099-40.512,30.744c-15.787,12.698-32.047,24.826-48.392,36.806
			c-6.542,4.795-13.805,8.624-20.842,12.715c-2.95,1.715-5.794-0.105-8.535-1.098c-19.431-7.038-37.368-17.209-55.695-26.574
			c-14.633-7.478-29.989-13.42-44.536-21.146c-8.019-4.259-12.044-9.524-11.196-18.895c0.701-7.744,0.125-15.603,0.13-23.411
			c0.001-1.34,0.105-2.689-1.042-3.697c0.75-2.321,2.356-3.939,4.231-5.408c5.893-4.616,11.747-9.281,17.592-13.957
			c1.159-0.927,3.466-1.781,0.624-3.462c-9.056-5.355-16.847-12.433-25.229-18.695c-15.432-11.53-33.232-19.59-47.542-32.72
			c-0.591-0.543-1.205-1.315-2.124-0.937c-1.263,0.519-0.697,1.688-0.683,2.601c0.064,4.149,0.362,8.263-0.273,12.441
			c-1.866,12.276-0.074,15.875,9.24,22.792c12.402,9.209,24.6,18.695,36.854,28.103c1.681,1.291,3.062,2.836,0.77,4.855
			c-10.601-1.477-18.055-8.742-26.129-14.631c-8.148-5.942-15.703-12.698-23.524-19.088c-1.699-1.388-2.402-2.921-2.837-5.309
			c-1.218-6.684-2.214-13.21-0.957-20.022c0.499-2.703-0.109-5.611-0.213-8.422c-0.758-5.528,2.015-11.131-0.375-16.641
			c-0.761-1.755,0.958-2.574,1.647-3.776c3.445-0.893,6.383-2.854,9.212-4.832c5.354-3.743,11.061-6.651,17.29-8.572
			c0.914-0.282,2.104-0.319,2.35-1.488c0.277-1.318-0.891-1.726-1.79-1.982c-12.482-3.548-22.769-11.164-33.678-17.721
			c-5.759-3.462-7.443-7.62-5.766-17.769c1.043-6.314,1.805-12.421,0.603-18.695C166.73,573.363,168.338,572.172,171.008,571.746z
			 M354.109,804.332c1.058-3.466-1.158-4.742-3.719-5.496c-8.95-2.638-17.307-6.64-25.618-10.785
			c-25.136-12.537-50.315-24.989-75.042-38.322c-2.761-1.489-3.399-0.875-3.523,1.928c-0.278,6.287-0.566,12.579-1.112,18.847
			c-0.214,2.456,0.928,3.749,2.741,4.757c6.094,3.388,12.097,6.97,18.36,10.017c18.819,9.155,38.246,17.057,56.624,27.11
			c8.041,4.398,16.496,7.882,24.673,11.968c1.822,0.91,5.057,3.189,5.184-1.747C352.836,816.457,352.697,810.292,354.109,804.332z
			 M232.463,620.406c-7.35-5.25-14.648-8.774-21.82-12.548c-8.992-4.731-16.894-11.192-25.494-16.549
			c-7.996-4.981-8.049-4.87-9.137,4.281c-0.196,1.646-0.414,3.318-0.895,4.894c-0.881,2.887,0.4,4.377,2.637,6.152
			c10.974,8.707,23.455,14.891,35.527,21.767c1.568,0.893,3.082,0.925,4.707,0.006C222.583,625.811,227.222,623.295,232.463,620.406
			z"/>
		<path style="fill:#019B99;" d="M361.579,488.832c3.685-9.432-3.275-19.13-10.882-25.055c-9.471-7.377-20.308-11.752-31.934-14.65
			c-13.362-3.331-26.433-7.908-39.875-10.814c-15.771-3.41-29.94-10.813-44.913-16.179c-9.36-3.354-18.919-5.987-26.712-12.729
			c-14.786-12.792-27.192-27.094-33.577-46.124c-1.885-5.618-2.311-11.293-3.54-16.911c-0.281-1.285-0.152-2.668,1.255-3.81
			c2.657,1.883,2.769,5.541,5.138,7.606c1.441,1.256,2.859,2.243,4.922,1.676c2.107-0.58,1.52-2.243,1.605-3.656
			c2.999,2.101,4.43,5.35,6.138,8.392c-2.173,0.701-4.721,0.881-5.821,3.279c-0.465,1.013,0.548,1.868,1.384,2.407
			c2.524,1.627,5.107,2.358,7.717,0.12c0.113-0.097,0.317-0.089,0.478-0.13c1.708,2.494,3.415,4.988,5.123,7.483
			c-1.643,1.524-5.333,2.766-1.894,5.491c2.297,1.82,5.156,3.741,8.621,2.602c2.612,1.645,4.481,4.071,6.572,6.263
			c-0.357,2.6,1.527,3.855,3.165,5.247c10.522,8.941,21.784,16.764,33.969,23.327c22.817,12.29,46.277,22.788,72.249,26.229
			c9.472,1.255,19.051,3.027,28.587,0.116c3.299,1.129,6.599,2.259,9.897,3.389c0.183,2.894,1.571,4.927,4.194,6.225
			c2.083,1.03,4.058,2.275,6.108,3.373c12.639,6.768,18.956,18.683,10.319,34.648c-0.843,1.558-1.575,2.99,0.179,4.385
			c-1.274,1.839-2.549,3.678-3.823,5.518c-1.397-0.615-2.122-3.018-4.161-1.834c-2.072,1.203-1.141,3.203-0.906,4.95
			c0.065,0.483,0.318,0.94,0.485,1.41c-2.298,3.483-5.917,3.926-9.616,4.181c-0.594-0.689-1.19-1.381-1.786-2.073
			c-1.089-3.338-0.758-6.557,0.931-9.607C362.036,492.02,362.288,490.485,361.579,488.832z"/>
		<path style="fill:#090C0C;" d="M173.968,670.559c-2.084,2.214-4.65,3.634-7.369,4.978c-15.466,7.646-30.893,15.373-46.258,23.22
			c-2.63,1.343-4.575,0.383-6.355-1.068c-8.578-6.996-18.746-11.243-28.317-16.5c-14.401-7.91-29.239-15.053-42.652-24.658
			c-1.174-0.841-2.702-2.12-2.835-3.331c-0.795-7.227-1.671-14.497-1.636-21.748c0.026-5.352,4.074-7.56,9.075-8.724
			c9.422-2.195,18.359-5.946,27.071-10.06c11.034-5.211,22.97-7.827,34.163-12.437c7.126-2.935,12.714-1.897,19.714,1.299
			c11.515,5.258,22.323,11.77,33.744,17.091c5.226,2.435,10.184,5.381,15.498,7.695c4.037,1.758,7.393,5.474,10.498,8.831
			c1.878,2.03,0.735,4.44-1.808,5.683c-3.715,1.816-7.476,3.538-11.217,5.301c-0.805,0.127-1.703,0.065-2.404,0.407
			c-14.456,7.039-29.36,13.088-43.142,21.619c-5.985,3.705-8.748,7.652-8.887,14.385c-0.123,5.958-0.42,5.973,5.35,3.796
			c2.012-0.759,3.989-1.617,5.96-2.48c11.987-5.246,23.206-12.217,35.948-15.791C171.041,667.243,173.379,666.483,173.968,670.559z
			 M177.102,636.956c-5.635-3.846-10.199-7.334-15.72-9.983c-12.959-6.219-25.133-13.985-38.719-19.086
			c-3.813-1.432-6.926-1.55-10.403-0.351c-13.616,4.693-27.541,8.529-40.563,14.872c-6.922,3.372-14.305,5.645-22.301,8.272
			c6.047,3.74,11.84,6.169,17.601,8.612c16.987,7.205,32.756,16.878,49.589,24.398c2.21,0.987,3.786,1.21,5.871-0.243
			c8.633-6.02,18.25-10.182,27.83-14.412C158.922,645.222,167.503,641.286,177.102,636.956z M47.497,643.59
			c-1.107,6.799,3.615,9.819,8.129,13.003c7.781,5.487,16.535,9.256,24.867,13.719c9.526,5.103,19.128,10.077,28.59,15.313
			c1.254,0.694,2.761,1.832,3.403-0.733c1.175-4.694-2.191-12.724-6.408-15.202c-17.911-10.524-37.553-17.79-54.972-29.26
			C46.765,637.572,47.643,641.464,47.497,643.59z"/>
		<path style="fill:#019C9A;" d="M231.485,735.379c2.292-2.019,0.911-3.565-0.77-4.855c-12.254-9.408-24.451-18.894-36.854-28.103
			c-9.314-6.917-11.106-10.516-9.24-22.792c0.635-4.178,0.336-8.291,0.273-12.441c-0.014-0.914-0.58-2.082,0.683-2.601
			c0.919-0.378,1.533,0.395,2.124,0.937c14.311,13.13,32.111,21.19,47.542,32.72c8.382,6.262,16.173,13.34,25.229,18.695
			c2.842,1.68,0.535,2.534-0.624,3.462c-5.845,4.676-11.7,9.341-17.592,13.957c-1.875,1.469-3.481,3.087-4.231,5.408
			C235.364,739.021,233.017,737.808,231.485,735.379z"/>
		<path style="fill:#0D0E0E;" d="M611.698,406.133c-2.038,3.135-4.164,2.746-6.765,0.502
			c-19.109-16.486-41.156-27.564-64.789-36.115c-19.177-6.939-39.12-9.922-58.974-13.577c-5.36-0.987-5.999-1.897-3.949-6.089
			c4.4-1.628,8.913-1.001,13.288-0.23c13.381,2.356,27.067,3.412,40.041,7.565c20.558,6.581,40.64,14.312,58.521,26.91
			c6.331,4.461,12.682,8.856,18.84,13.564C610.645,400.752,611.773,402.962,611.698,406.133z"/>
		<path style="fill:#131515;" d="M360.244,503.181c0.596,0.692,1.193,1.384,1.786,2.073c3.648,2.462,0.413,3.417-1.104,4.476
			c-6.625,4.626-14.434,6.668-21.745,9.804c-23.69,10.164-48.123,18.323-72.618,26.198c-18.604,5.982-37.616,10.692-56.434,16.013
			c-9.592,2.712-19.172,5.469-28.722,8.321c-3.095,0.924-6.106,1.161-9.193,0.194c4.823-3.643,10.767-4.396,16.241-6.392
			c19.343-7.053,39.23-12.369,58.85-18.526c21.841-6.854,43.791-13.354,65.292-21.242
			C328.909,518.116,344.767,511.077,360.244,503.181z"/>
		<path style="fill:#019A98;" d="M173.967,670.559c-0.589-4.076-2.927-3.316-5.859-2.493c-12.742,3.574-23.961,10.545-35.948,15.791
			c-1.971,0.863-3.948,1.721-5.96,2.48c-5.77,2.176-5.472,2.162-5.35-3.796c0.139-6.732,2.901-10.68,8.887-14.385
			c13.782-8.531,28.686-14.58,43.142-21.619c0.701-0.341,1.599-0.28,2.404-0.407c1.5-0.191,2.611,0.711,3.812,1.36
			c-0.688,1.202-2.408,2.021-1.646,3.776c2.39,5.51-0.383,11.113,0.375,16.641C176.538,668.789,175.253,669.674,173.967,670.559z"/>
		<path style="fill:#F8B26D;" d="M631.703,254.139c-0.456,1.602-1.446,2.877-2.843,3.874
			c-19.362,13.824-39.983,25.658-60.202,38.128c-1.637,1.01-3.209,1.779-5.121,0.818c-1.34-0.673-2.883-1.224-3.187-2.898
			c-0.294-1.618,1.087-2.28,2.191-3c7.801-5.091,15.535-10.289,23.432-15.227c11.988-7.496,24.203-14.634,35.796-22.747
			c2.335-1.634,4.767-2.252,7.534-1.709C630.791,251.67,631.691,252.461,631.703,254.139z"/>
		<path style="fill:#F9B471;" d="M71.991,476.146c-4.616-0.169-8.241,0.676-11.249-1.784c-1.286-1.052-2.645-2.299-1.936-4.196
			c0.62-1.661,2.175-1.82,3.763-1.709c22.189,1.555,43.08-3.78,63.444-11.941c3.665-1.469,7.136-1.666,9.775,2.043
			c1.045,1.468,1.443,3.133-0.79,3.317c-8.807,0.723-16.175,5.751-24.55,7.857C97.39,473.017,84.272,475.483,71.991,476.146z"/>
		<path style="fill:#F8B26D;" d="M611.837,339.262c-0.832,0-1.166,0.023-1.497-0.004c-2.536-0.203-5.808-0.513-5.991-3.282
			c-0.193-2.926,3.062-4.093,5.638-4.561c12.913-2.347,26.013-3.054,39.066-4.147c4.618-0.387,9.233-0.872,13.859-1.067
			c2.658-0.112,5.826-0.008,5.855,3.695c0.026,3.264-2.378,4.195-5.461,4.401C645.938,335.454,628.603,337.01,611.837,339.262z"/>
		<path style="fill:#F8B26D;" d="M140.172,535.871c-2.043-0.438-4.106-1.046-4.82-3.123c-0.817-2.376,1.49-3.29,2.932-3.97
			c16.11-7.597,31.115-17.136,46.414-26.157c2.552-1.505,5.206-2.019,6.908,1.01c1.881,3.346-1.207,4.191-3.248,5.464
			c-13.247,8.262-26.556,16.415-40.327,23.792C145.515,534.236,142.942,535.293,140.172,535.871z"/>
		<path style="fill:#F9B471;" d="M60.205,374.724c14.696,5.104,30.856,3.642,46.608,5.57c2.098,0.257,4.229,0.931,6.135,1.848
			c1.548,0.744,2.485,2.42,1.832,4.208c-0.736,2.014-2.374,1.878-4.148,1.253c-5.464-1.926-11.163-1.445-16.798-1.438
			c-10.849,0.012-21.524-1.259-32.019-4.031c-1.791-0.473-3.532-0.992-4.831-2.404c-0.899-0.976-1.982-1.967-1.2-3.469
			C56.564,374.76,57.872,374.186,60.205,374.724z"/>
		<path style="fill:#F9B471;" d="M61.983,273.395c0.437,0.277,1.136,0.693,1.807,1.15c14.226,9.687,29.415,18.01,42.175,29.768
			c1.472,1.357,4.599,2.417,3.059,4.865c-1.763,2.805-4.712,1.092-6.565-0.331c-8.559-6.572-17.21-13.006-26.211-18.96
			c-5.655-3.74-12.028-6.438-16.739-11.538c-0.892-0.966-1.982-2.026-0.899-3.458C59.324,273.949,60.379,273.409,61.983,273.395z"/>
		<path style="fill:#F8B26D;" d="M539.781,244.016c-2.855-0.191-4.506-4.065-2.799-6.906c3.041-5.06,7.572-8.833,11.668-12.951
			c4.338-4.361,9.035-8.363,13.416-12.683c1.66-1.636,3.036-2.279,5.153-0.889c2.613,1.716,1.834,4.06,0.582,5.636
			c-2.571,3.238-5.477,6.279-8.602,8.991c-5.921,5.139-11.56,10.512-16.222,16.836C542.139,243.19,541.323,244.13,539.781,244.016z"
			/>
		<path style="fill:#F9B471;" d="M128.826,205.502c0.429,0.326,1.082,0.799,1.71,1.304c8.94,7.179,16.607,15.642,24.301,24.08
			c1.27,1.393,2.815,2.914,1.04,4.655c-1.541,1.511-3.641,0.709-4.974-0.517c-4.629-4.259-9.539-8.344-13.449-13.213
			c-3.163-3.938-7.166-6.838-10.469-10.511c-0.962-1.07-2.066-2.369-1.253-3.996C126.253,206.257,127.162,205.471,128.826,205.502z"
			/>
		<path style="fill:#F9B471;" d="M641.747,245.294c-1.86-0.012-2.854-0.569-3.389-1.714c-0.613-1.313-0.522-2.703,0.572-3.674
			c1.604-1.424,3.29-2.793,5.095-3.943c6.708-4.273,13.504-8.408,20.215-12.678c3.004-1.911,4.764-0.196,6.027,2.099
			c1.408,2.56-0.795,3.451-2.584,4.391c-7.781,4.087-15.178,8.809-22.542,13.587C643.911,244.161,642.589,244.818,641.747,245.294z"
			/>
		<path style="fill:#F8B26D;" d="M111.534,555.822c0.011,1.701-1.346,2.197-2.538,2.697c-8.733,3.664-17.319,7.603-25.259,12.831
			c-1.842,1.213-3.362,0.753-4.768-0.941c-1.698-2.047-0.562-3.435,0.972-4.584c8.052-6.03,16.829-10.632,26.71-12.82
			C109.428,552.389,111.497,553.818,111.534,555.822z"/>
		<path style="fill:#F9B471;" d="M170.208,441.38c3.11-0.051,4.895,0.869,5.348,3.096c0.432,2.122-1.495,2.932-3.029,3.317
			c-7.427,1.864-14.539,4.292-20.891,8.805c-2.016,1.432-4.465,0.896-5.875-1.724c-1.476-2.742,0.79-3.465,2.362-4.524
			C155.102,445.65,163.141,443.64,170.208,441.38z"/>
		<path style="fill:#F9B471;" d="M225.878,482.245c2.655,0.178,4.331,0.686,4.932,2.421c0.776,2.241-1.255,2.816-2.692,3.436
			c-6.53,2.818-13.085,5.561-18.867,9.822c-1.496,1.102-3.021,1.158-4.419-0.364c-1.293-1.408-1.075-2.867,0.137-3.948
			C211.264,487.995,219.251,485.593,225.878,482.245z"/>
		<path style="fill:#F9B471;" d="M664.477,393.107c-5.143-0.626-11.093-2.654-17.057-4.534c-1.309-0.413-3.492-1.075-2.997-3.323
			c0.453-2.056,2.126-3.018,4.109-2.826c7.292,0.708,13.958,3.89,21.025,5.525c1.216,0.281,1.784,1.557,1.375,2.816
			C670.062,393.441,667.803,393.292,664.477,393.107z"/>
		<path style="fill:#F9B471;" d="M278.802,505.938c-0.237,0.396-0.498,1.013-0.913,1.498c-3.232,3.78-6.472,7.553-9.755,11.288
			c-1.477,1.68-3.569,2.49-5.293,1.023c-1.989-1.693,0.197-3.28,1.097-4.63c2.482-3.723,5.118-7.345,7.769-10.951
			c1.278-1.738,3.04-1.867,4.902-0.99C277.69,503.685,278.604,504.385,278.802,505.938z"/>
		<path style="fill:#F9B471;" d="M215.188,195.319c0.374,1.941,0.281,2.765-0.788,2.947c-1.353,0.23-2.74,0.141-3.692-0.983
			c-3.757-4.439-7.168-9.144-10.06-14.184c-0.756-1.317-1.686-3.309,0.135-4.5c1.737-1.136,3.194,0.163,4.249,1.524
			c2.848,3.676,5.71,7.349,8.363,11.164C214.411,192.749,214.877,194.595,215.188,195.319z"/>
		<path style="fill:#F9B471;" d="M137.772,391.345c-3.241-0.622-6.538-1.047-9.7-1.948c-1.564-0.445-3.126-1.976-2.741-3.739
			c0.489-2.241,2.833-1.647,4.207-1.282c3.746,0.993,7.5,1.259,11.337,1.267c1.805,0.004,4.383,0.333,4.398,2.315
			c0.016,2.065-2.414,2.838-4.464,3.063c-0.986,0.108-1.993,0.019-2.99,0.019C137.803,391.142,137.787,391.244,137.772,391.345z"/>
		<path style="fill:#F9B471;" d="M126.355,546.958c-2.478-0.787-3.942-2.736-4.121-5.061c-0.194-2.535,2.274-3.266,4.164-3.174
			c1.802,0.088,4.325,0.588,4.112,3.277C130.32,544.396,129.079,546.38,126.355,546.958z"/>
		<path style="fill:#131515;" d="M624.294,416.223c-0.761,1.794-1.376,3.929-3.689,4.044c-1.227,0.061-2.397-0.942-3.106-2.14
			c-1.589-2.685,0.727-4.147,1.875-5.975C622.798,411.354,624.005,413.234,624.294,416.223z"/>
		<path style="fill:#F9B471;" d="M125.773,321.972c-0.873,2.183-2.571,3.775-4.78,3.668c-2.347-0.113-2.917-2.254-2.962-4.432
			c-0.053-2.612,1.528-2.992,3.584-2.818C123.826,318.578,125.305,319.636,125.773,321.972z"/>
		<path style="fill:#F9B471;" d="M586.373,338.21c2.863,0.066,3.952,1.91,4.26,4.19c0.293,2.172-1.208,2.956-3.134,2.834
			c-2.496-0.157-4.047-1.588-4.229-4.064C583.114,339.044,584.686,338.384,586.373,338.21z"/>
		<path style="fill:#F9B471;" d="M683.477,394.341c-0.642,1.862-1.86,2.795-3.791,2.401c-2.298-0.47-3.398-2.227-3.347-4.317
			c0.044-1.831,1.51-3.133,3.391-2.777C682.132,390.103,683.04,392.135,683.477,394.341z"/>
		<path style="fill:#F9B471;" d="M242.474,475.977c-2.15-0.419-3.711-1.412-3.893-3.413c-0.153-1.683,1.346-1.987,2.734-2.019
			c1.787-0.042,3.307,0.399,3.516,2.5C245.013,474.864,243.849,475.621,242.474,475.977z"/>
		<path style="fill:#019C9A;" d="M620.608,567.81c3.355,1.158,5.515-0.686,7.018-3.21c3.04-5.105,5.82-10.364,9.364-15.467
			c-0.812,5.366-1.242,10.823-2.499,16.083c-7.255,30.367-22.788,55.832-44.166,78.581c-13.973,14.869-31.105,25.359-46.362,38.364
			c-19.751,16.836-41.203,31.629-60.967,48.364c-23.871,20.213-48.353,39.625-72.904,58.946
			c-15.133,11.909-29.391,25.1-46.403,34.521c-0.559,0.31-1.106,0.641-2.089,1.211c-0.909-5.03-0.5-9.772-0.392-14.461
			c0.073-3.146,0.543-6.258,0.308-9.452c-0.252-3.418,2.463-5.241,4.859-6.968c19.529-14.078,39.074-28.132,58.657-42.135
			c6.889-4.926,13.96-9.596,20.824-14.555c4.286-3.096,4.345-5.085,0.839-9.218c3.782-3.634,8.344-6.207,12.581-9.223
			c1.876,1.241,3.631,2.876,6.079,0.975c2.318-1.801,1.883-3.868,0.872-6.08c3.309-2.457,6.618-4.914,9.928-7.369
			c1.895,0.828,3.374,0.176,5.058-0.905c2.573-1.651,3.918-4.387,6.405-6.175c10.773-7.745,21.554-15.51,31.918-23.786
			c14.136-11.288,27.99-22.936,41.789-34.638c13.547-11.488,26.634-23.501,39.084-36.177c3.304-3.364,5.996-7.252,4.321-12.488
			c1.092-1.925,2.184-3.85,3.276-5.774c7.092-0.112,9.774-3.399,7.346-9.003C617.627,574.727,618.001,570.679,620.608,567.81z"/>
		<path style="fill:#070B0B;" d="M604.73,592.548c1.675,5.236-1.017,9.124-4.321,12.488c-12.45,12.676-25.537,24.689-39.084,36.177
			c-13.799,11.702-27.653,23.35-41.789,34.638c-10.364,8.276-21.145,16.041-31.918,23.786c-2.487,1.788-3.832,4.523-6.405,6.175
			c-1.684,1.081-3.163,1.733-5.058,0.905c-2.551-3.346-0.035-5.102,2.2-6.894c11.278-9.042,22.79-17.807,33.812-27.151
			c19.52-16.549,38.831-33.347,58.059-50.236c10.106-8.876,20.105-17.913,28.337-28.667
			C600.261,591.551,602.359,591.359,604.73,592.548z"/>
		<path style="fill:#090C0C;" d="M349.355,439.01c-9.537,2.911-19.115,1.14-28.587-0.116c-25.971-3.442-49.432-13.939-72.249-26.229
			c-12.185-6.564-23.447-14.386-33.969-23.327c-1.638-1.392-3.522-2.647-3.165-5.247c3.646-1.849,6.356,0.145,8.96,2.273
			c13.789,11.271,29.034,20.173,44.935,28.092c24.747,12.323,50.969,18.821,78.481,20.275
			C346.973,434.9,348.608,436.117,349.355,439.01z"/>
		<path style="fill:#0D0E0E;" d="M380.052,491.03c-1.754-1.395-1.022-2.827-0.179-4.385c8.637-15.966,2.319-27.88-10.319-34.648
			c-2.05-1.098-4.025-2.343-6.108-3.373c-2.623-1.297-4.011-3.331-4.194-6.225c18.831,0.598,34.743,19.751,30.526,37.442
			C388.621,484.689,386.095,489.75,380.052,491.03z"/>
		<path style="fill:#0D0E0E;" d="M615.352,577.771c2.428,5.604-0.254,8.891-7.346,9.003
			C607.044,581.03,609.626,577.867,615.352,577.771z"/>
		<path style="fill:#131515;" d="M466.228,714.086c1.011,2.212,1.446,4.279-0.872,6.08c-2.448,1.902-4.203,0.266-6.079-0.975
			c-0.623-2.012-1.639-4.044,0.654-5.752C462.255,711.708,464.257,712.626,466.228,714.086z"/>
		<path style="fill:#0D0E0E;" d="M204.812,377.828c-3.465,1.139-6.324-0.781-8.621-2.602c-3.439-2.725,0.252-3.967,1.894-5.491
			C203.59,370.856,205.081,372.65,204.812,377.828z"/>
		<path style="fill:#0D0E0E;" d="M192.962,362.253c-0.161,0.041-0.365,0.032-0.478,0.13c-2.61,2.238-5.193,1.508-7.717-0.12
			c-0.836-0.539-1.849-1.394-1.384-2.407c1.1-2.398,3.649-2.578,5.821-3.279C190.711,358.302,193.092,359.447,192.962,362.253z"/>
		<path style="fill:#131515;" d="M371.647,501.073c-0.167-0.469-0.42-0.927-0.485-1.41c-0.235-1.747-1.166-3.747,0.906-4.95
			c2.04-1.184,2.764,1.219,4.161,1.834c0.301,1.033,2.215,1.759,1.385,2.727C376.151,500.98,374.074,501.936,371.647,501.073z"/>
		<path style="fill:#019B99;" d="M183.105,348.252c-1.129-0.387-1.31-1.27-1.206-2.307
			C182.723,346.49,183.346,347.146,183.105,348.252z"/>
		<path style="fill:#019C9A;" d="M488.521,285.025c0,3.985,0.064,7.972-0.021,11.956c-0.065,3.021-1.029,4.154-4.29,2.496
			c-18.711-9.515-38.1-17.821-54.596-31.205c-2.614-2.12-5.562-3.886-8.723-4.715c-4.192-1.099-5.619-3.309-5.189-7.478
			c0.528-5.119,0.83-10.274,0.934-15.419c0.068-3.373,1.588-3.988,4.426-3.148c5.248,1.552,10.584,2.9,15.353,5.699
			c15.628,9.174,31.869,17.204,47.93,25.563c2.897,1.508,4.35,2.816,3.871,6.286c-0.45,3.264-0.096,6.639-0.096,9.966
			C488.254,285.025,488.387,285.025,488.521,285.025z"/>
		<path style="fill:#019A98;" d="M355.955,298.427c-5.311-14.649-3.267-31.587,11.499-39.911
			c11.414-6.435,22.142-14.106,34.285-19.238c1.224-0.517,2.469-0.984,3.683-1.523c2.591-1.15,3.897-0.46,3.349,2.471
			c-1.107,5.923-0.984,11.905-1.014,17.881c-0.01,2.074-0.691,3.431-2.916,3.95c-21.1,4.926-36.284,17.793-47.717,35.672
			C356.969,297.972,356.577,298.065,355.955,298.427z"/>
		<path style="fill:#019A98;" d="M316.274,181.027c-10.383,4.905-19.196,9.083-28.022,13.231
			c-3.744,1.759-12.979-4.521-13.091-9.113c-0.163-6.647,0.008-13.301,0.025-19.952c0.004-1.712,0.337-3.416,2.481-2.082
			C289.373,170.394,301.76,176.257,316.274,181.027z"/>
		<path style="fill:#019C9A;" d="M354.109,804.332c-1.412,5.959-1.273,12.125-1.432,18.276c-0.128,4.936-3.362,2.657-5.184,1.747
			c-8.177-4.086-16.631-7.569-24.673-11.968c-18.379-10.052-37.806-17.955-56.624-27.11c-6.263-3.047-12.266-6.629-18.36-10.017
			c-1.813-1.008-2.956-2.302-2.741-4.757c0.546-6.267,0.834-12.559,1.112-18.847c0.124-2.803,0.762-3.417,3.523-1.928
			c24.727,13.332,49.907,25.785,75.042,38.322c8.311,4.145,16.669,8.147,25.618,10.785
			C352.951,799.591,355.168,800.866,354.109,804.332z"/>
		<path style="fill:#019A98;" d="M232.463,620.406c-5.24,2.89-9.88,5.405-14.473,8.003c-1.625,0.919-3.139,0.887-4.707-0.006
			c-12.072-6.876-24.553-13.06-35.527-21.767c-2.237-1.775-3.518-3.264-2.637-6.152c0.481-1.576,0.699-3.248,0.895-4.894
			c1.088-9.151,1.141-9.261,9.137-4.281c8.6,5.357,16.502,11.818,25.494,16.549C217.814,611.632,225.112,615.156,232.463,620.406z"
			/>
		<path style="fill:#BAEBE8;" d="M177.102,636.956c-9.599,4.33-18.18,8.266-26.816,12.078c-9.58,4.229-19.197,8.392-27.83,14.412
			c-2.084,1.454-3.661,1.231-5.871,0.243c-16.833-7.52-32.602-17.193-49.589-24.398c-5.761-2.443-11.553-4.872-17.601-8.612
			c7.996-2.627,15.378-4.9,22.301-8.272c13.023-6.343,26.947-10.179,40.563-14.872c3.477-1.198,6.591-1.081,10.403,0.351
			c13.586,5.101,25.759,12.868,38.719,19.086C166.903,629.622,171.467,633.11,177.102,636.956z"/>
		<path style="fill:#019A98;" d="M47.497,643.59c0.146-2.127-0.732-6.018,3.609-3.16c17.419,11.469,37.061,18.735,54.972,29.26
			c4.217,2.478,7.583,10.508,6.408,15.202c-0.642,2.565-2.148,1.427-3.403,0.733c-9.462-5.235-19.064-10.209-28.59-15.313
			c-8.332-4.464-17.086-8.232-24.867-13.719C51.112,653.41,46.39,650.389,47.497,643.59z"/>
	</g>
</g>
</svg>
