<?xml version="1.0" encoding="iso-8859-1"?>
<!-- Generator: Adobe Illustrator 22.1.0, SVG Export Plug-In . SVG Version: 6.00 Build 0)  -->
<svg version="1.1" id="Layer_1" xmlns="http://www.w3.org/2000/svg" xmlns:xlink="http://www.w3.org/1999/xlink" x="0px" y="0px"
	 viewBox="0 0 741.89 852.276" style="enable-background:new 0 0 741.89 852.276;" xml:space="preserve">
<g>
	<g>
		<path style="fill:#FCFDFD;" d="M382,853.276c-125.167,0-250.333-0.02-375.5,0.094c-3.75,0.003-4.602-0.844-4.596-4.594
			C2.031,770.942,2,693.109,2,615.276c0.364-0.06,0.729-0.12,1.093-0.18c3.936,2.177,7.627,1.562,11.268-0.826
			c2.782-1.825,5.711-3.426,8.527-5.202c7.816-4.928,11.286-11.702,11.269-21.268c-0.202-117.152-0.122-234.305-0.181-351.458
			c-0.002-3.224,0.515-5.345,3.718-7.191c110.958-63.919,221.847-127.956,332.7-192.056c2.66-1.538,4.532-1.5,7.182,0.032
			c110.708,64.024,221.456,127.981,332.264,191.833c3.2,1.844,4.221,3.792,4.218,7.401c-0.098,127.651-0.094,255.303-0.012,382.954
			c0.002,3.384-0.939,5.287-3.978,7.037c-84.272,48.529-168.3,97.485-252.803,145.607c-24.891,14.175-47.84,30.824-70.23,48.417
			c-5.469,4.297-10.237,9.537-15.033,14.622c-3.924,4.161-4.392,10.018-0.713,12.862c3.002,2.32,6.355,4.92,10.713,4.531
			C382.003,852.687,382.002,852.981,382,853.276z M151.976,682.172l-0.098,0.027c1.551,0.159,2.494-1.083,3.742-1.621
			c0.55,6.795-2.382,13.257-1.659,20.155c0.544,5.192,1.759,9.461,5.756,13.268c11.149,10.618,22.532,20.925,34.904,30.108
			c2.842,3.768,6.546,5.683,11.332,5.275c1.26,2.228,0.404,4.6,0.262,6.846c-0.44,6.954-1.051,13.906-1.86,20.827
			c-1.114,9.533,5.568,13.519,12.237,17.353c12.522,7.199,25.409,13.786,37.725,21.314c15.726,9.612,31.112,19.773,47.937,27.451
			c2.374,1.083,4.822,2.933,7.456,1.668c7.023-3.373,14.217-6.555,20.765-10.721c24.941-15.871,49.557-32.253,74.496-48.128
			c11.383-7.246,21.826-15.804,33.129-23.098c19.681-12.7,39.573-25.091,58.225-39.276c7.691-5.85,16.364-10.052,24.081-15.87
			c6.239-4.704,11.912-9.981,17.925-14.893c9.552-7.805,18.925-15.652,25.13-26.629c6.523-11.539,14.83-22.02,20.599-34.004
			c4.558-9.469,6.857-19.735,9.814-29.758c2.056-6.968,4.311-13.886,2.544-21.399c-0.548-2.328-0.366-5.055,0.257-7.393
			c3.563-13.371,4.052-27.24,6.812-40.727c2.851-13.932-0.641-26.639-7.18-38.799c-1.983-3.687-4.821-5.827-9.275-4.75
			c-2.154-2.391-3.189-5.762-6.357-7.266c1.252-6.158,0.581-6.963-4.465-5.35c-0.877-3.129-2.43-5.68-5.748-6.723
			c0.264-2.095,0.882-4.081-1.078-5.964c-16.972-16.305-36.264-29.058-57.631-38.927c-15.63-7.219-32.335-10.527-48.809-14.749
			c-3.527-0.904-7.151-1.475-10.835-0.923c-3.923-2.519-8.262-0.634-12.372-1.169c0.727-2.154-0.701-2.961-2.279-3.737
			c-4.509-2.215-9.188-3.93-14.222-4.329c-15.946-1.265-31.062-4.941-44.743-13.776c-10.024-6.474-20.851-11.727-28.775-21.116
			c-1.775-2.103-1.752-3.441-0.426-5.544c9.19-14.571,22.425-23.794,38.58-28.99c2.85-0.917,6.248-1.959,9.166-0.545
			c5.506,2.669,10.85,5.717,15.304,10.048c15.237,14.819,35.096,22.734,52.159,34.836c3.466,2.458,6.853,0.47,7.525-3.801
			c0.877-5.568,2.151-11.053,2.056-16.787c-0.16-9.616,2.304-18.964,3.43-28.421c2.18-18.306,2.266-36.85,3.98-55.224
			c1.944-20.838,1.862-41.832,5.003-62.572c0.461-3.042-0.557-5.897-4.019-6.404c-6.382-0.935-12.509-3.362-19.01-3.426
			c-16.941-0.167-33.882,0.233-50.827,0.176c-13.758-0.046-27.537,1.441-41.278,2.592c-12.743,1.068-25.476,2.37-38.014,5.078
			c-16.788,3.626-33.766,5.226-50.935,4.479c-6.42-0.279-10.738,2.751-11.31,8.965c-0.623,6.768,0.121,13.736-1.125,20.354
			c-1.627,8.639-0.698,15.115,9.038,17.246c-0.633,1.891-1.978,2.113-2.93,2.542c-9.682,4.364-18.663,10.01-27.98,15.039
			c-22,11.874-43.208,24.848-61.376,42.225c-5.123,4.9-10.171,10.006-13.161,16.624c-6.147,13.605-7.103,28.175-8.092,42.793
			c-0.458,6.772-1.996,13.686-0.418,20.248c3.144,13.08,7.239,25.878,15.916,36.704c6.665,8.315,12.524,17.832,22.087,22.732
			c13.578,6.958,26.608,15.121,40.785,20.78c19.564,7.81,39.598,14.443,59.15,22.281c12.328,4.942,23.632,11.727,28.341,25.479
			c0.634,1.852,1.771,3.165,3.806,3.495c0.9,4.825,0.76,9.626-0.342,14.404c-1.401-1.672-2.914-0.968-4.457-0.239
			c-2.847,1.345-5.621,2.914-8.581,3.94c-20.202,7.01-40.572,13.366-61.464,18.167c-21.524,4.946-43.042,9.914-64.602,14.705
			c-12.134,2.696-24.099,6.151-36.207,8.979c-2.57,0.6-2.085,1.377-1.143,2.859c-0.454,0.062-0.907,0.123-1.361,0.185
			c-2.899-0.373-5.14,0.228-4.797,3.798c0.706,7.354-0.438,14.467-1.953,21.65c-0.69,3.275-1.823,7.375,1.822,10.105
			c10.978,8.224,21.278,17.535,36.112,21.982c-7.98,2.596-14.847,4.487-21.06,7.979c-0.219-0.526-0.439-1.052-0.658-1.579
			c2.177-2.474,1.866-4.742-0.454-6.967c-4.968-4.764-10.551-8.685-16.445-12.192c-13.671-8.135-27.357-16.245-40.994-24.438
			c-1.206-0.724-2.091-1.142-3.607-0.732c-10.397,2.809-20.881,5.301-31.254,8.191c-12.114,3.375-23.57,8.937-36.284,10.406
			c-4.425,0.511-7.418,5.209-7.394,9.797c0.025,4.813,0.206,9.628,0.121,14.439c-0.052,2.933,1.167,4.844,3.399,6.703
			c11.784,9.817,25,17.476,37.911,25.607c7.021,4.421,14.58,8.321,20.629,13.844c4.669,4.264,7.903,4.438,13.289,1.979
			c14.916-6.811,30.534-11.998,45.391-18.991C151.167,682.694,151.572,682.433,151.976,682.172z M322.465,149.688
			c11.36,5.896,22.631,11.919,34.729,16.319c6.182,2.248,11.032,0.404,15.759-2.976c2.146-1.534,3.809-3.727,5.857-5.42
			c3.518-2.907,3.839-5.397,0.273-8.817c-20.46-19.626-37.391-42.462-56.934-62.938c-6.193-6.488-11.741-6.598-17.896,0.183
			c-2.441,2.689-2.654,5.348-0.062,7.903c9.978,9.833,17.309,21.972,27.569,31.563c1.197,1.119,3.066,2.293,1.788,4.634
			c-15.805-9.002-31.516-18.041-48.904-23.683c-8.707-2.825-16.602,0.317-20.366,8.434c-0.985,2.123-0.861,3.714,0.603,5.453
			c3.642,4.323,7.259,8.669,10.797,13.077c14.086,17.554,30.64,32.85,45.454,49.743c8.646,9.859,6.813,8.558,17.566,3.092
			c7.409-3.766,7.834-5.936,2.908-12.637c-6.021-8.192-13.246-15.361-19.869-23.042C321.98,150.279,322.222,149.983,322.465,149.688
			z M527.251,187.356c-0.442-0.167-0.884-0.335-1.326-0.502c0-7.446,0.133-14.895-0.03-22.337
			c-0.261-11.893-3.518-15.016-15.128-14.013c-9.823,0.849-19.602,2.217-29.4,3.356c6.839-5.762,12.796-12.214,19.078-18.327
			c4.95-4.817,4.892-7.919-0.755-11.962c-2.839-2.033-5.904-3.755-8.692-5.852c-6.029-4.535-7.221-4.407-13.67-0.205
			c-14.576,9.498-27.081,21.549-40.49,32.48c-4.638,3.781-8.887,8.061-12.659,12.744c-2.5,3.104-2.871,5.6,0.624,8.944
			c3.543,3.39,8.329,4.135,11.805,7.23c2.753,2.451,5.702,2.39,9.271,1.838c17.755-2.742,35.574-5.067,53.363-7.598
			c2.635-0.375,3.551,0.424,3.393,3.172c-0.757,13.139-0.86,26.245,0.389,39.409c1.323,13.95,13.232,20.366,24.923,12.795
			c2.093-1.355,4.182-2.763,6.068-4.385c9.599-8.248,19.273-16.42,28.632-24.935c5.169-4.703,10.226-9.52,15.523-14.095
			c6.156-5.317,5.707-9.751-0.931-14.031c-2.938-1.894-5.87-3.797-8.842-5.637c-7.687-4.758-9.411-4.688-16.348,1.069
			C543.742,173.41,535.514,180.404,527.251,187.356z M224.032,248.75c-0.133-7.22-2.664-13.643-6.483-19.658
			c-13.17-20.738-29.619-38.969-44.557-58.356c-2.798-3.631-6.199-4.159-10.134-1.986c-1.75,0.966-3.554,1.843-5.248,2.897
			c-4.526,2.818-4.911,4.809-1.813,9.302c9.185,13.322,19.515,25.76,29.674,38.328c4.414,5.461,8.509,11.144,11.507,17.487
			c1.652,3.495,4.371,7.908,0.023,10.833c-3.756,2.527-7.608-0.108-10.772-2.781c-17.879-15.108-34.137-31.711-47.414-51.102
			c-6.573-9.6-8.516-9.771-17.762-2.177c-0.643,0.528-1.214,1.148-1.879,1.646c-3.341,2.499-3.237,5.344-1.224,8.697
			c3.612,6.017,7.977,11.484,12.158,17.083c10.502,14.065,23.378,25.973,35.317,38.736c5.476,5.855,11.828,10.24,19.274,13.014
			c15.531,5.786,25.219-0.304,35.573-10.828C223.044,257.066,224.121,252.927,224.032,248.75z M344.058,81.714
			c-0.149,6.456,1.032,12.655,4.119,18.322c9.027,16.572,20.254,31.067,36.381,41.675c10.068,6.623,20.009,8.26,31.178,4.313
			c22.02-7.781,30.596-28.112,17.897-47.037c-1.382-2.059-1.242-2.997,0.92-4.12c1.703-0.884,4.416-1.368,4.495-3.531
			c0.161-4.445-3.043-7.56-5.472-10.894c-1.866-2.561-4.23-1.236-6.341-0.51c-11.438,3.931-20.462,11.575-29.264,19.462
			c-2.15,1.927-1.619,4.562,0.113,6.755c4.431,5.61,6.011,5.815,12.581,2.39c1.346-0.702,2.639-3.047,4.676-0.944
			c6.55,6.764,4.951,13.584-2.445,17.554c-7.369,3.955-14.673,3.75-21.299-2.108c-2.74-2.423-6.089-4.269-8.446-6.995
			c-8.447-9.769-15.96-20.168-16.99-33.665c-0.544-7.125,1.55-10.112,8.131-13.255c5.331-2.546,9.271-0.144,12.929,3.455
			c1.068,1.051,2.083,2.175,3.253,3.101c3.526,2.791,8.12,2.019,13.092-2.164c3.496-2.941,3.047-6.319,0.987-9.841
			c-2.431-4.156-6.018-7.031-10.151-9.364c-10.669-6.022-21.279-4.339-32.273-0.611c-10.871,3.687-17.133,10.401-17.717,22.032
			C344.311,77.728,344.177,79.72,344.058,81.714z M636.967,212.54c0.292-12.325-10.236-20.802-21.186-18.673
			c-27.009,5.251-50.408,18.387-72.943,33.4c-2.488,1.658-5.012,3.324-7.234,5.305c-3.635,3.24-3.366,8.006,0.709,10.496
			c7.045,4.305,14.312,6.302,21.836,0.822c2.011-1.464,4.269-2.584,6.337-3.976c1.406-0.947,2.556-1.022,4.071-0.062
			c8.87,5.628,18.432,9.944,27.946,14.317c2.615,1.202,2.699,2.342,1.213,4.355c-0.689,0.934-1.253,1.961-1.867,2.95
			c-7.898,12.7-5.66,17.715,9.173,20.563c1.828,0.351,3.612,0.293,5.42-0.255c2.06-0.624,3.617-1.792,4.263-3.841
			c1.972-6.249,5.464-11.73,8.607-17.391C631.871,245.132,635.722,228.41,636.967,212.54z M248.866,175.967
			c0.548-13.712-10.578-30.12-23.337-34.795c-2.008-0.736-4.183-1.495-6.269-1.462c-16.044,0.249-28.895,7.884-40.472,18.12
			c-2.566,2.269-2.649,5.137-0.139,7.936c2.551,2.845,4.776,5.981,7.286,8.866c17.697,20.346,35.439,40.653,53.148,60.989
			c4.566,5.243,8.596,5.245,13.119-0.315c1.45-1.782,2.35-4.002,3.6-5.959c1.492-2.337,1.118-4.072-0.906-6.081
			c-5.551-5.508-10.792-11.327-16.292-16.888c-2.172-2.197-1.774-3.421,0.812-4.725c6.681-3.37,13.25-5.605,19.973-0.015
			c2.162,1.798,4.888,2.947,6.942,4.842c3.542,3.267,7.265,3.625,11.459,1.719c2.118-0.962,4.215-1.978,6.376-2.833
			c2.914-1.153,2.856-2.807,0.947-4.82c-4.464-4.708-8.856-9.49-13.46-14.059c-4.846-4.809-10.777-7.222-17.633-6.301
			C250.02,180.723,247.251,180.7,248.866,175.967z M43.64,238.849c1.231,5.361,5.86,8.495,10.175,11.788
			c2.569,1.961,5.218,1.851,7.542-0.75c2.256-2.525,5.438-3.806,8.079-5.805c2.414-1.827,3.732-1.365,5.551,1.024
			c18.092,23.771,39.002,45.009,59.897,66.257c1.157,1.176,2.063,1.876,3.807,0.913c5.121-2.829,10.064-5.863,14.134-10.146
			c2.462-2.591,2.705-4.738-0.158-7.553c-18.43-18.118-34.759-38.102-51.117-58.056c-6.164-7.52-6.198-7.492,2.121-11.869
			c0.589-0.31,1.182-0.611,1.766-0.93c11.213-6.128,12.086-11.145,3.804-21.019c-2.996-3.572-6.232-4.636-10.476-2.131
			c-11.734,6.926-23.577,13.668-35.278,20.647c-5.141,3.066-10.067,6.497-15.045,9.828C45.87,232.768,43.961,234.999,43.64,238.849z
			 M673.339,276.123c12.921-2.012,21.941-9.008,29.921-18.233c11.493-13.287,6.429-16.892-5.213-23.157
			c-4.164-2.241-6.697-1.437-9.367,1.95c-3.298,4.182-6.667,8.332-10.866,11.692c-3.098,2.479-6.976,4.711-10.444,2.91
			c-3.709-1.927-2.526-6.461-1.958-10.063c0.843-5.34,3.379-10.035,5.724-14.835c1.574-3.221,3.358-7.016-0.676-9.855
			c-3.523-2.479-7.221-4.68-11.49-5.888c-4.215-1.192-7.311,0.018-9.323,3.643c-2.095,3.774-4.106,7.65-5.61,11.685
			c-3.719,9.972-6.177,20.352-2.195,30.643c1.533,3.961,1.185,6.255-1.189,9.218c-5.53,6.901-10.396,14.275-14.399,22.166
			c-1.395,2.75-3.175,5.986,0.507,8.404c4.025,2.643,8.128,5.23,12.791,6.678c3.185,0.989,5.72,0.468,7.75-2.611
			c3.665-5.557,7.65-10.902,11.478-16.352C662.444,278.901,665.033,271.808,673.339,276.123z M116.44,357.603
			c-2.403-10.211-5.362-16.6-9.601-20.599c-3.255-3.07-6.788-5.538-11.621-3.628c-4.239,1.676-7.258,6.448-7.347,11.533
			c-0.172,9.836,9.131,20.271,20.091,22.457c2.333,0.465,4.71,0.712,7.339,1.099c-1.379,2.367-3.019,4.258-2.008,6.788
			c1.495,3.743-0.333,3.835-3.297,3.28c-4.956-0.928-9.477-3.103-14.224-4.616c-5.652-1.801-10.13-0.673-13.09,3.238
			c-2.618,3.459-2.272,8.226,0.951,13.014c0.834,1.239,1.684,2.468,2.684,3.93c-3.022,0.216-4.058-1.371-5.035-3.223
			c-2.582-4.897-5.987-9.255-9.797-13.198c-6.035-6.246-13.329-9.916-22.312-9.052c-4.546,0.437-7.125,3.299-8.337,7.49
			c-0.891,3.082,0.045,5.723,2.775,7.351c8.562,5.104,17.083,10.362,26.41,13.954c4.953,1.907,8.923,4.233,9.905,9.904
			c0.276,1.595,1.289,2.773,3.029,2.816c1.725,0.043,2.988-1.032,3.166-2.629c0.492-4.42,2.876-3.237,5.51-2.189
			c8.186,3.257,16.21,6.962,24.782,9.178c3.125,0.808,5.903,0.371,6.631-3.204c0.665-3.264-1.575-4.216-4.461-5.313
			c-10.382-3.949-19.419-10.104-26.853-18.429c-1.035-1.159-2.29-2.908-1.038-4.467c1.222-1.521,2.833-0.094,4.07,0.476
			c5.148,2.373,10.26,4.85,15.976,5.491c8.434,0.946,13.724-5.102,11.866-13.357c-0.777-3.45-2.599-6.018-6.242-7.328
			c5.762-3.543,8.067-6.009,10.35-10.846c3.092-6.555-0.275-21.187-5.877-25.395c-1.349-1.013-2.918-2.005-4.558-0.954
			c-1.668,1.069-1.427,2.881-0.901,4.526c0.759,2.376,1.811,4.674,2.401,7.087C118.952,347.591,120.349,352.487,116.44,357.603z
			 M303.177,204.134c3.976-1.195,8.162-3.233,11.759-6.189c2.848-2.341,3.561-4.848,0.618-8.327
			c-6.889-8.144-13.799-16.25-21.32-23.819c-11.268-11.342-22.905-22.332-32.573-35.167c-2.195-2.914-4.856-5.483-7.349-8.166
			c-3.643-3.92-7.101-2.456-10.473,0.445c-3.239,2.787-5.251,5.403-2.675,10.239c3.716,6.978,8.595,13.044,13.162,19.371
			c12.014,16.644,24.846,32.597,39.799,46.741C296.555,201.561,298.94,203.925,303.177,204.134z M125.9,441.33
			c3.012,0.409,5.478-0.467,5.958-3.735c0.595-4.048-2.134-5.601-5.574-6.24c-20.924-3.884-41.423-9.586-62.12-14.445
			c-2.393-0.562-3.653-1.618-4.47-3.92c-1.607-4.529-3.546-8.94-5.345-13.401c-1.071-2.654-2.878-4.001-5.845-3.321
			c-2.882,0.66-3.24,2.907-3.5,5.336c-0.412,3.848,2.128,6.504,3.652,9.58c5.578,11.256,10.797,22.574,6.721,35.669
			c-0.589,1.891-0.229,3.69,1.794,4.644c1.82,0.859,3.214-0.113,4.435-1.321c1.577-1.561,2.575-3.523,3.052-5.639
			c0.915-4.063,1.537-8.211,1.252-12.372c-0.206-3.001,0.9-3.377,3.431-2.615c3.019,0.91,6.112,1.572,9.169,2.356
			C94.135,435.914,109.871,439.357,125.9,441.33z M137.507,377.823c0.039,14.044,1.589,27.888,5.559,41.402
			c1.601,5.45,3.785,10.665,6.98,15.382c1.068,1.577,2.285,3.897,4.621,2.894c2.495-1.071,1.269-3.392,0.754-5.258
			c-0.575-2.082-1.283-4.128-1.856-6.211c-7.963-28.931-10.664-57.86,0.087-86.774c0.058-0.156,0.108-0.315,0.149-0.477
			c0.684-2.724,0.19-5.147-2.561-6.278c-2.925-1.203-5.217,0.026-6.568,2.807c-0.722,1.487-1.267,3.07-1.782,4.645
			C138.862,352.258,137.401,364.929,137.507,377.823z M580.947,407.165c0.83-0.061,1.667-0.078,2.49-0.19
			c19.265-2.622,38.536-5.207,57.791-7.906c10.201-1.43,20.379-3.029,30.556-4.626c2.773-0.435,4.92-1.89,4.081-5.042
			c-0.737-2.767-2.95-2.907-5.617-2.483c-16.576,2.636-33.204,4.957-49.771,7.646c-13.122,2.13-26.193,4.582-39.258,7.04
			c-1.99,0.374-4.857,0.798-4.704,3.555C576.649,407.592,579.175,407.06,580.947,407.165z M599.162,331.706
			c0.004-1.346-0.666-2.022-1.943-2.514c-2.473-0.953-4.493-0.085-6.584,1.081c-9.585,5.347-19.215,10.598-29.022,15.544
			c-9.356,4.719-18.431,9.995-27.619,15.047c-1.139,0.626-2.765,1.173-2.479,2.757c0.315,1.741,1.924,2.651,3.463,3.345
			c1.598,0.721,2.923-0.306,4.22-0.966c5.933-3.018,11.882-6.011,17.729-9.191c13.127-7.139,26.857-13.165,39.394-21.404
			C597.82,334.42,599.057,333.593,599.162,331.706z M79.414,496.961c12.147-0.863,25.174-2.113,37.838-5.854
			c4.119-1.217,8.067-3.1,12.531-3.025c2.818,0.047,2.507-1.647,1.314-3.254c-2.736-3.686-6.401-2.852-9.961-1.693
			c-14.97,4.874-30.323,7.314-46.054,7.216c-3.635-0.023-7.266-0.637-10.9-0.963c-1.516-0.136-3.22-0.308-3.873,1.428
			c-0.713,1.894,0.679,3.057,2.012,4.14c1.095,0.89,2.37,1.166,3.716,1.245C70.18,496.443,74.322,496.672,79.414,496.961z
			 M131.281,556.194c1.079-0.328,2.387-0.612,3.606-1.114c14.798-6.093,28.771-13.886,43.095-20.956
			c1.348-0.665,2.162-1.5,1.886-3.089c-0.3-1.726-1.398-2.564-3.061-2.786c-1.925-0.257-3.602,0.519-5.247,1.326
			c-13.885,6.813-27.391,14.427-42.031,19.638c-1.806,0.643-4.126,1.635-3.365,4.161C126.796,555.476,128.98,555.98,131.281,556.194
			z M615.104,457.355c-1.971,0.098-4.138,0.087-6.271,0.355c-1.31,0.165-2.662,0.716-2.818,2.354
			c-0.161,1.684,1.109,2.392,2.404,2.722c2.403,0.611,4.843,1.153,7.3,1.456c12.503,1.546,25.155,2.061,37.423,5.194
			c2.948,0.753,5.619,1.043,6.448-2.311c0.886-3.581-2.123-4.298-4.83-4.901C641.761,459.331,628.548,458.214,615.104,457.355z
			 M544.69,289.988c0.213-1.8-1.475-2.009-2.402-2.831c-1.446-1.283-2.38-0.044-3.401,0.776c-4.533,3.64-9.214,7.11-13.574,10.945
			c-3.988,3.508-7.692,7.348-11.405,11.155c-1.787,1.832-0.937,3.742,0.566,5.292c1.223,1.261,2.814,1.315,3.977-0.01
			c6.852-7.802,15.497-13.539,23.236-20.315C543.246,293.637,544.359,292.057,544.69,289.988z M524.516,374.332
			c0.205-2.847-3.346-5.335-6.098-3.588c-7.197,4.57-15.521,6.883-22.546,11.695c-1.597,1.094-3.761,2.285-2.333,4.717
			c1.175,2,3.228,1.374,4.93,0.652c7.65-3.246,15.275-6.553,22.888-9.886C522.92,377.237,524.178,376.157,524.516,374.332z
			 M96.982,569.501c-7.796,1.859-16.395,5.119-24.304,10.095c-1.404,0.883-2.044,2.033-1.044,3.755
			c1.011,1.741,2.457,2.445,4.128,1.526c7.715-4.242,16-7.077,24.202-10.136c1.345-0.502,3.045-1.11,2.371-3.125
			C101.712,569.755,100.095,569.349,96.982,569.501z M168.688,475.231c-0.59-2.998-3.013-3.98-5.242-3.368
			c-6.835,1.875-13.996,2.894-20.185,6.721c-1.436,0.888-3.837,1.306-2.435,3.918c1.207,2.249,3.248,3.018,5.402,1.766
			c5.831-3.389,12.019-5.485,18.714-6.288C166.491,477.793,168.229,477.195,168.688,475.231z M216.851,515.853
			c-0.826-2.083-2.636-3.123-4.682-2.47c-6.46,2.062-13.006,4.017-18.776,7.74c-1.335,0.861-2.934,2.084-1.651,4.04
			c1.105,1.685,2.888,1.65,4.439,0.77c5.807-3.296,12.02-5.587,18.315-7.707C215.577,517.862,216.738,517.453,216.851,515.853z
			 M258.92,538.278c-0.066-1.542-0.796-2.262-1.738-2.618c-1.616-0.611-3.308-0.78-4.572,0.726
			c-2.661,3.172-5.299,6.365-7.845,9.629c-0.889,1.141-3.027,2.276-0.918,4.038c1.783,1.49,3.396,0.557,4.771-0.845
			c3.018-3.077,6.02-6.171,9.004-9.281C258.173,539.353,258.613,538.673,258.92,538.278z M609.431,319.176
			c-3.202,0.002-4.943,1.577-5.038,4.176c-0.103,2.825,1.929,4.015,4.634,3.982c2.546-0.031,4.254-1.406,4.366-3.853
			C613.518,320.767,611.862,319.225,609.431,319.176z M673.382,465.417c-2.444,0.227-4.032,1.533-4.209,3.988
			c-0.193,2.678,1.199,4.576,3.944,4.621c2.476,0.04,3.856-1.666,3.979-4.135C677.223,467.35,675.791,465.968,673.382,465.417z
			 M120.747,560.892c-0.189-2.112-2.171-2.835-3.773-2.957c-1.671-0.128-4.04,0.462-3.669,2.964
			c0.284,1.918,1.295,4.052,3.639,4.174C119.412,565.201,120.17,563.141,120.747,560.892z M549.174,408.453
			c0.43,2.089,1.514,3.604,3.87,3.827c1.836,0.174,2.87-0.599,2.804-2.545c-0.08-2.369-1.404-3.802-3.654-3.972
			C550.621,405.644,549.302,406.481,549.174,408.453z M230.37,506.218c-0.198-1.844-1.367-2.595-3.031-2.736
			c-1.299-0.11-2.433,0.239-2.368,1.802c0.073,1.756,1.191,2.725,2.903,2.808C229.135,508.153,230.133,507.616,230.37,506.218z"/>
		<path style="fill:#FEFEFE;" d="M2,219.276c0-73.667,0-147.333,0-221c246.5,0,493,0.01,739.5-0.093
			c3.749-0.002,4.603,0.843,4.596,4.593c-0.129,72.5-0.096,145-0.096,217.5c-0.258-0.168-0.537-0.222-0.839-0.162
			c-1.151-6.947-5.958-10.783-11.637-14.06C617.732,139.227,501.935,72.409,386.238,5.419c-8.623-4.993-16.053-4.887-24.686,0.124
			c-81.059,47.054-162.27,93.848-243.438,140.714c-34.889,20.145-69.775,40.296-104.684,60.407
			c-5.058,2.914-9.47,6.265-10.54,12.492C2.591,219.183,2.295,219.223,2,219.276z"/>
		<path style="fill:#FEFEFE;" d="M382,853.276c0.002-0.294,0.003-0.589,0.004-0.883c0.397-0.301,0.767-0.648,1.195-0.895
			c79.119-45.674,158.244-91.337,237.364-137.01c38.047-21.963,76.077-43.953,114.131-65.904c5.241-3.023,9.519-6.732,10.493-13.125
			l0.436,0.04l0.377-0.222c0,71.272-0.04,142.544,0.112,213.816c0.008,3.777-0.988,4.27-4.421,4.267
			C621.794,853.259,501.897,853.276,382,853.276z"/>
		<path style="fill:#5FC2C1;" d="M746,635.276l-0.377,0.222c0,0-0.436-0.04-0.436-0.04c-0.064-1.16-0.185-2.32-0.185-3.48
			c-0.005-134.294-0.002-268.589,0.009-402.884c0-2.994,0.098-5.987,0.15-8.981c0.302-0.059,0.581-0.005,0.839,0.162
			C746,358.609,746,496.942,746,635.276z"/>
		<path style="fill:#5FC2C1;" d="M2,219.276c0.295-0.052,0.591-0.092,0.89-0.12c0.049,0.496,0.142,0.992,0.142,1.488
			C3.012,350.463,2.985,480.281,2.965,610.1c0,1.665,0.084,3.33,0.128,4.995c-0.364,0.06-0.729,0.12-1.093,0.18
			C2,483.276,2,351.276,2,219.276z"/>
		<path style="fill:#BDEEEB;" d="M439.736,408.326c4.11,0.535,8.449-1.351,12.372,1.169c-3.133,3.951-2.824,4.936,2.633,6.239
			c22.957,5.482,45.541,11.903,66.623,22.943c15.733,8.24,30.121,18.196,42.775,30.648c1.95,1.919,3.821,3.876,6.323,0.733
			c3.318,1.043,4.871,3.594,5.747,6.724c-1.125,1.717-1.916,3.407-0.233,5.293c1.595,1.788,3.121,1.109,4.699,0.056
			c3.168,1.504,4.203,4.875,6.357,7.266c-2.067,2.89-1.036,5.505,0.462,8.288c6.209,11.537,9.426,23.594,6.575,36.829
			c-1.185,5.498-1.868,11.125-2.451,16.728c-1.451,13.946-4.666,27.222-11.029,39.955c-4.212,8.428-9.332,16.415-12.788,25.222
			c-2.421,3.406-4.842,6.812-7.263,10.217c-3.814,1.305-5.901,3.925-6.091,7.992c-1.203,1.574-2.407,3.148-3.61,4.722
			c-2.401-0.708-4.125,0.26-5.655,2.079c-5.49,6.522-12.163,11.812-18.834,16.975c-18.381,14.224-36.872,28.32-55.642,42.025
			c-13.663,9.976-27.859,19.219-41.763,28.869c-1.877,1.303-4.864,2.251-3.298,5.679c-3.343,1.826-6.56,3.835-9.36,6.449
			c-1.91-1.192-3.851-1.996-5.934-0.383c-1.892,1.465-0.959,3.239-0.511,4.956c-3.698,2.798-7.396,5.596-11.094,8.394
			c-2.088-0.761-4-0.986-6.11,0.366c-4.336,2.779-8.962,5.107-13.281,7.911c-22.031,14.302-44.382,28.081-66.952,41.512
			c-1.818,1.082-3.227,1.745-5.406,0.407c-15.426-9.473-31.63-17.594-46.987-27.22c-13.224-8.289-26.841-15.945-39.948-24.444
			c-3.915-2.539-3.515-4.254,0.034-6.491c4.635-2.922,9.303-5.821,13.708-9.068c2.538-1.871,5.191-4.864,3.495-7.947
			c-1.599-2.908-3.7-5.84-6.453-8.134c-14.56-12.13-28.708-24.771-44.638-35.167c-7.003-4.57-13.163-10.138-18.907-16.216
			c-1.82-1.926-1.691-2.685,0.643-3.845c7.138-3.547,14.196-7.169,21.767-9.842c9.074-3.203,17.939-7.024,26.468-11.552
			c3.353-1.78,4.579-3.652,1.965-7.374c-4.207-5.991-10.542-9.115-16.336-12.839c-15.666-10.068-31.306-20.117-44.821-33.078
			c0.454-0.062,0.907-0.123,1.36-0.185c1.155-0.122,2.329-0.15,3.462-0.379c27.976-5.669,56.003-11.1,83.898-17.144
			c16.234-3.518,32.335-7.733,48.346-12.176c12.949-3.593,25.759-7.738,38.137-13.087c2.31-0.998,3.572-2.286,2.989-4.885
			c5.001,3.656,6.497-1.474,9.168-3.658c1.898,1.167,3.873,0.7,5.284-0.541c1.422-1.25-1.395-2.266-0.82-3.741
			c1.517-1.083,2.76-2.395,3.467-4.154c2.369,0.422,4.046-0.512,5.591-2.339c2.994-3.539,4.526-7.866,5.316-12.114
			c2.566-13.795-11.691-30.425-26.08-30.993c-3.986-1.024-7.971-2.047-11.957-3.071c0.764-0.814,3.058,0.187,2.543-2.142
			c-0.288-1.302-0.477-2.621-2.23-2.849c-1.808-0.234-3.589-0.673-5.394-0.939c-11.828-1.748-23.531-4.029-34.775-8.224
			c-27.024-10.083-51.13-24.9-72.263-44.552c-2.057-1.913-4.295-3.82-7.319-1.543c-2.767-1.488-4.848-3.68-6.49-6.324
			c2.007-1.827,1.405-3.696,0.109-5.594c-1.777-2.602-4.138-2.942-6.892-1.818c-1.485-2.196-2.971-4.392-4.456-6.588
			c2.681-1.619,2.702-3.382,0.531-5.568c-1.38-1.39-3.019-0.746-4.531-1.058c-0.991-1.694-1.983-3.388-2.974-5.082
			c2.533-1.216,0.858-2.782,0.265-4.142c-2.579-5.914-5.066-11.837-6.323-18.224c-2.567-13.036-0.671-25.43,7.221-36.038
			c6.122-8.229,14.265-14.735,22.459-21.021c14.14-10.847,29-20.449,44.914-28.563c21.505-10.965,43.694-20.312,66.023-29.383
			c2.761-1.122,5.77-1.756,8.337-3.199c4.407-2.477,4.353-5.4,0.174-8.26c-4.816-3.296-10.036-5.839-15.257-8.428
			c-7.362-3.651-14.247-8.122-21.009-13.648c7.276-1.696,14.1-1.118,20.822-1.741c17.88-1.656,35.362-6.238,53.236-7.661
			c24.009-1.912,47.961-4.679,72.19-3.529c13.224,0.628,26.525-0.214,39.772,1.104c2.852,0.284,3.518,1.254,3.357,3.968
			c-0.896,15.115-1.047,30.298-2.545,45.349c-2.155,21.647-2.539,43.413-4.945,65.029c-0.229,2.053-0.494,4.102-0.825,6.832
			c-5.771-5.001-12.011-7.748-17.848-11.132c-14.345-8.316-27.986-17.908-43.593-23.985c-4.831-1.881-9.182-2.588-14.286-0.683
			c-11.421,4.262-22.021,10.126-32.91,15.464c-6.627,3.249-11.833,7.778-16.727,13.003c-12.315,13.149-10.864,33.945-0.885,46.752
			c5.394,6.922,12.322,11.487,19.399,16.146c16.185,10.654,32.705,20.47,52.594,22.438c6.309,0.624,12.519,1.832,18.548,3.788
			C436.19,411.841,438.299,411.124,439.736,408.326z"/>
		<path style="fill:#02A09E;" d="M3.093,615.095c-0.045-1.665-0.129-3.33-0.128-4.995c0.02-129.819,0.047-259.638,0.067-389.456
			c0-0.496-0.093-0.992-0.142-1.488c1.07-6.227,5.482-9.578,10.54-12.492c34.909-20.11,69.794-40.262,104.684-60.407
			C199.282,99.391,280.493,52.597,361.552,5.543c8.633-5.011,16.063-5.117,24.686-0.124
			c115.697,66.991,231.494,133.808,347.286,200.634c5.679,3.278,10.486,7.113,11.637,14.06c-0.052,2.994-0.15,5.987-0.15,8.981
			c-0.011,134.295-0.014,268.589-0.009,402.884c0,1.16,0.121,2.32,0.185,3.48c-0.974,6.393-5.252,10.102-10.493,13.126
			c-38.054,21.951-76.085,43.941-114.131,65.904c-79.12,45.673-158.245,91.336-237.364,137.01c-0.428,0.247-0.798,0.595-1.195,0.895
			c-4.359,0.389-7.712-2.211-10.713-4.531c-3.679-2.844-3.211-8.701,0.713-12.862c4.795-5.085,9.564-10.325,15.033-14.622
			c22.39-17.593,45.339-34.242,70.23-48.417c84.503-48.122,168.531-97.078,252.803-145.607c3.039-1.75,3.981-3.653,3.978-7.037
			c-0.083-127.651-0.086-255.303,0.012-382.954c0.003-3.609-1.018-5.557-4.218-7.401
			C599.034,165.108,488.286,101.152,377.578,37.128c-2.651-1.533-4.523-1.57-7.182-0.032
			c-110.853,64.1-221.742,128.138-332.7,192.056c-3.203,1.845-3.72,3.967-3.718,7.191c0.059,117.153-0.022,234.305,0.181,351.458
			c0.017,9.566-3.453,16.34-11.269,21.268c-2.816,1.776-5.745,3.377-8.527,5.202C10.72,616.658,7.03,617.272,3.093,615.095z"/>
		<path style="fill:#070808;" d="M439.736,408.326c-1.438,2.798-3.547,3.515-6.57,2.534c-6.029-1.956-12.24-3.164-18.548-3.788
			c-19.889-1.968-36.408-11.784-52.594-22.438c-7.077-4.659-14.005-9.223-19.399-16.146c-9.979-12.807-11.43-33.603,0.885-46.752
			c4.894-5.225,10.1-9.754,16.727-13.003c10.89-5.338,21.489-11.202,32.91-15.464c5.104-1.905,9.455-1.198,14.286,0.683
			c15.607,6.076,29.249,15.669,43.593,23.985c5.838,3.384,12.077,6.131,17.848,11.132c0.331-2.73,0.596-4.779,0.825-6.832
			c2.406-21.616,2.79-43.381,4.945-65.029c1.498-15.051,1.649-30.234,2.545-45.349c0.161-2.714-0.505-3.685-3.357-3.968
			c-13.247-1.318-26.548-0.476-39.772-1.104c-24.229-1.15-48.18,1.617-72.19,3.529c-17.874,1.423-35.357,6.005-53.236,7.661
			c-6.722,0.623-13.546,0.045-20.822,1.741c6.762,5.526,13.647,9.997,21.009,13.648c5.221,2.589,10.441,5.132,15.257,8.428
			c4.179,2.86,4.233,5.784-0.174,8.26c-2.567,1.443-5.577,2.077-8.337,3.199c-22.328,9.071-44.518,18.418-66.023,29.383
			c-15.914,8.114-30.774,17.716-44.914,28.563c-8.194,6.286-16.337,12.792-22.459,21.021c-7.892,10.608-9.788,23.001-7.221,36.038
			c1.258,6.387,3.745,12.31,6.323,18.224c0.593,1.36,2.267,2.926-0.264,4.141c-6.308,0.291-6.004-6.082-9.03-9.333
			c-0.447,0.604-0.866,0.941-0.965,1.355c-0.191,0.794-0.302,1.636-0.27,2.452c0.573,14.562,4.606,27.985,13.021,40.02
			c8.922,12.76,18.383,24.876,33.601,30.756c3.861,1.492,7.931,2.706,11.425,4.836c16.04,9.78,33.858,15.235,51.359,21.422
			c13.735,4.856,27.914,8.614,40.25,16.74c7.311,4.816,13.834,10.498,16.337,19.376c0.988,3.505,1.536,7.164-1.594,10.125
			c-2.035-0.331-3.172-1.643-3.806-3.495c-4.709-13.751-16.013-20.537-28.341-25.479c-19.552-7.838-39.586-14.471-59.15-22.281
			c-14.177-5.659-27.207-13.822-40.785-20.78c-9.563-4.9-15.422-14.417-22.087-22.732c-8.677-10.825-12.771-23.623-15.916-36.704
			c-1.577-6.563-0.04-13.476,0.418-20.248c0.989-14.617,1.945-29.187,8.092-42.793c2.99-6.619,8.038-11.724,13.161-16.624
			c18.168-17.376,39.375-30.351,61.376-42.225c9.317-5.029,18.298-10.675,27.98-15.039c0.952-0.429,2.297-0.652,2.93-2.542
			c-9.735-2.131-10.665-8.607-9.038-17.246c1.247-6.618,0.502-13.586,1.125-20.354c0.572-6.214,4.89-9.244,11.31-8.965
			c17.169,0.747,34.147-0.853,50.935-4.479c12.538-2.708,25.27-4.01,38.014-5.078c13.741-1.151,27.52-2.638,41.278-2.592
			c16.945,0.057,33.885-0.343,50.827-0.176c6.501,0.064,12.628,2.491,19.01,3.426c3.462,0.507,4.48,3.361,4.019,6.404
			c-3.141,20.74-3.059,41.734-5.003,62.572c-1.714,18.374-1.801,36.919-3.98,55.224c-1.126,9.457-3.59,18.805-3.43,28.421
			c0.095,5.733-1.178,11.219-2.056,16.787c-0.673,4.271-4.059,6.259-7.525,3.801c-17.064-12.103-36.923-20.018-52.159-34.836
			c-4.454-4.332-9.797-7.379-15.304-10.048c-2.918-1.414-6.316-0.371-9.166,0.545c-16.156,5.196-29.39,14.419-38.58,28.99
			c-1.326,2.103-1.349,3.44,0.426,5.544c7.924,9.389,18.751,14.643,28.775,21.116c13.681,8.836,28.797,12.511,44.743,13.776
			c5.034,0.399,9.713,2.114,14.222,4.329C439.036,405.365,440.463,406.172,439.736,408.326z M395.821,301.085
			c-2.698,0.181-5.177,1.158-7.656,2.122c-10.874,4.227-21.031,9.966-31.515,15.013c-13.806,6.647-16.879,23.615-12.387,35.821
			c2.601-2.928,4.308-6.363,7.1-8.982c11.366-10.666,23.775-19.336,39.714-21.475c2.047-0.275,2.778-1.213,2.985-3.197
			c0.654-6.284,1.478-12.55,2.231-18.827c0.08-0.262,0.16-0.523,0.24-0.785C396.295,300.878,396.058,300.981,395.821,301.085z
			 M467.178,339.554c0.62-1.411-0.779-2.479-2.666-3.672c-14.47-9.148-29.236-17.826-43.373-27.511
			c-3.514-2.408-7.66-3.978-11.662-5.563c-3.413-1.352-6.104-0.933-6.408,3.773c-0.278,4.303-0.851,8.609-1.645,12.849
			c-0.631,3.372,0.315,5.194,3.633,6.396c3.759,1.363,7.161,3.668,10.036,6.427c13.487,12.941,30.172,21.084,45.755,30.89
			c3.711,2.335,4.559,0.606,4.778-2.66C466.072,353.849,465.687,347.166,467.178,339.554z M314.446,243.817
			c-11.797-5.54-22.409-11.93-32.452-19.312c-1.529-1.124-2.696-1.274-2.846,1.214c-0.39,6.45-1.04,12.889-1.238,19.343
			c-0.111,3.62,7.83,9.744,10.917,8.595C297.4,250.465,305.911,247.108,314.446,243.817z"/>
		<path style="fill:#050808;" d="M156.988,591.371c13.515,12.961,29.155,23.01,44.821,33.078c5.795,3.724,12.13,6.848,16.336,12.839
			c2.613,3.722,1.387,5.594-1.965,7.374c-8.529,4.528-17.394,8.348-26.468,11.552c-7.571,2.673-14.629,6.295-21.767,9.842
			c-2.334,1.16-2.464,1.919-0.643,3.845c5.743,6.078,11.904,11.646,18.907,16.216c15.931,10.396,30.078,23.038,44.638,35.167
			c2.754,2.294,4.854,5.226,6.453,8.134c1.696,3.084-0.957,6.076-3.495,7.947c-4.405,3.247-9.073,6.146-13.708,9.068
			c-3.549,2.237-3.949,3.953-0.034,6.491c13.107,8.499,26.725,16.154,39.948,24.444c15.356,9.626,31.561,17.747,46.987,27.22
			c2.179,1.338,3.588,0.675,5.406-0.407c22.57-13.43,44.921-27.21,66.952-41.512c4.319-2.803,8.945-5.132,13.281-7.911
			c2.11-1.352,4.022-1.128,6.112-0.366c2.37,4.575-0.73,6.708-4.003,8.513c-25.471,14.048-49.394,30.647-74.573,45.174
			c-2.331,1.345-5.113,2.802-5.344,5.512c-0.625,7.354-2.434,14.647-1.683,22.512c1.749-0.812,3.239-1.474,4.705-2.188
			c10.969-5.341,20.652-12.693,30.708-19.483c19.556-13.205,39.964-25.258,58.755-39.46c27.091-20.476,56.486-37.514,83.625-57.828
			c13.793-10.324,29.46-17.744,42.248-29.789c12.57-11.84,24.152-24.184,33.297-38.808c8.923-14.268,14.635-29.738,17.479-46.296
			c0.123-0.05,0.265-0.077,0.361-0.158c0.048-0.041,0.014-0.179,0.017-0.274c-0.099,0.169-0.197,0.337-0.296,0.506
			c-1.676,0.19-1.734,1.776-2.423,2.816c-2.554,3.855-4.838,7.932-7.762,11.481c-1.495,1.814-4.241,4.944-6.059-0.201
			c3.456-8.808,8.575-16.794,12.787-25.222c6.364-12.733,9.578-26.009,11.029-39.955c0.583-5.603,1.266-11.23,2.451-16.728
			c2.851-13.235-0.365-25.292-6.575-36.829c-1.498-2.783-2.529-5.398-0.462-8.288c4.454-1.078,7.293,1.063,9.275,4.75
			c6.539,12.16,10.03,24.868,7.18,38.799c-2.76,13.488-3.249,27.357-6.812,40.727c-0.623,2.338-0.805,5.065-0.257,7.393
			c1.767,7.513-0.488,14.431-2.544,21.399c-2.957,10.022-5.256,20.288-9.814,29.758c-5.769,11.985-14.075,22.465-20.599,34.004
			c-6.206,10.977-15.578,18.824-25.13,26.629c-6.013,4.913-11.686,10.189-17.925,14.893c-7.716,5.818-16.39,10.021-24.081,15.87
			c-18.651,14.185-38.544,26.576-58.225,39.276c-11.303,7.294-21.745,15.852-33.129,23.098
			c-24.939,15.875-49.555,32.257-74.496,48.128c-6.548,4.167-13.742,7.348-20.765,10.721c-2.634,1.265-5.082-0.585-7.456-1.668
			c-16.825-7.677-32.211-17.839-47.937-27.451c-12.316-7.528-25.203-14.115-37.725-21.314c-6.669-3.834-13.351-7.82-12.237-17.353
			c0.809-6.922,1.419-13.873,1.86-20.827c0.142-2.246,0.998-4.618-0.262-6.846c0.883-2.817,3.438-3.909,5.593-5.406
			c5.903-4.101,11.815-8.189,18.063-12.519c-9.286-6.216-16.314-13.815-24.114-20.513c-13.22-11.352-28.637-19.944-40.731-32.676
			c-0.557-0.586-1.204-1.251-2.138-0.734c-0.926,0.512-0.551,1.455-0.581,2.227c-0.147,3.81-0.049,7.598-1.098,11.369
			c-2.276,8.177-0.953,15.334,6.268,20.824c10.594,8.054,19.578,17.943,29.753,26.491c1.65,1.386,5.064,2.481,3.947,5.067
			c-1.085,2.512-4.154,0.104-6.294,0.594c-12.372-9.183-23.755-19.49-34.904-30.108c-3.997-3.806-5.212-8.076-5.756-13.268
			c-0.723-6.898,2.209-13.36,1.66-20.147c0.096-1.124,0.275-2.257,0.274-3.389c-0.009-8.849-0.06-17.702,11.219-20.31
			c6.21-3.493,13.077-5.384,21.057-7.98c-14.834-4.447-25.134-13.758-36.112-21.982c-3.645-2.731-2.513-6.83-1.822-10.105
			c1.514-7.183,2.659-14.296,1.953-21.65C151.848,591.599,154.089,590.999,156.988,591.371z M213.295,758.432
			c-1.608,4.993-1.382,10.391-2.611,15.403c-1.64,6.686,1.806,9.355,6.543,12.431c22.015,14.299,46.012,25.205,67.819,39.858
			c4.675,3.141,9.807,5.606,14.753,8.337c4.448,2.456,4.918,2.204,5.302-2.615c0.369-4.639,0.841-9.271,2.301-13.715
			c1.026-3.122,0.685-5.511-2.769-6.752c-7.677-2.758-14.728-6.782-21.682-10.959C259.77,786.496,236.628,772.505,213.295,758.432z
			 M160.557,604.86c-1.457,5.393-1.491,9.964-3.23,14.124c-0.82,1.962,0.495,2.886,1.784,4.106
			c9.579,9.061,20.947,15.625,31.768,22.948c0.909,0.615,1.946,1.23,3.254,0.651c4.758-2.105,9.654-3.937,14.708-7.475
			C191.726,628.969,176.441,617.33,160.557,604.86z"/>
		<path style="fill:#03A09E;" d="M527.251,187.356c8.263-6.952,16.491-13.946,24.801-20.842c6.937-5.756,8.661-5.827,16.348-1.069
			c2.972,1.84,5.904,3.743,8.842,5.637c6.638,4.28,7.087,8.714,0.931,14.031c-5.297,4.575-10.354,9.392-15.523,14.095
			c-9.359,8.515-19.032,16.687-28.632,24.935c-1.887,1.621-3.975,3.029-6.068,4.385c-11.691,7.57-23.6,1.154-24.923-12.795
			c-1.249-13.163-1.146-26.269-0.389-39.409c0.158-2.748-0.758-3.547-3.393-3.172c-17.788,2.53-35.608,4.855-53.363,7.598
			c-3.57,0.551-6.518,0.613-9.271-1.838c-3.476-3.095-8.262-3.84-11.805-7.23c-3.495-3.344-3.124-5.841-0.624-8.944
			c3.772-4.683,8.021-8.962,12.659-12.744c13.409-10.931,25.914-22.983,40.49-32.48c6.448-4.202,7.641-4.33,13.67,0.205
			c2.787,2.096,5.853,3.819,8.692,5.852c5.647,4.043,5.705,7.145,0.755,11.962c-6.283,6.113-12.24,12.565-19.078,18.327
			c9.798-1.139,19.577-2.507,29.4-3.356c11.609-1.003,14.867,2.121,15.128,14.013c0.163,7.442,0.03,14.891,0.03,22.337
			C526.367,187.021,526.809,187.189,527.251,187.356z"/>
		<path style="fill:#03A09E;" d="M321.738,150.575c6.623,7.682,13.848,14.85,19.869,23.042c4.925,6.701,4.5,8.871-2.908,12.637
			c-10.753,5.466-8.92,6.767-17.566-3.092c-14.815-16.893-31.368-32.189-45.454-49.743c-3.538-4.409-7.155-8.755-10.797-13.077
			c-1.465-1.739-1.588-3.329-0.603-5.453c3.764-8.117,11.659-11.259,20.366-8.434c17.389,5.642,33.1,14.681,48.904,23.683
			c1.278-2.341-0.591-3.516-1.788-4.634c-10.26-9.591-17.591-21.73-27.569-31.563c-2.592-2.555-2.38-5.213,0.062-7.903
			c6.155-6.781,11.703-6.671,17.896-0.183c19.543,20.475,36.474,43.312,56.934,62.938c3.566,3.42,3.244,5.91-0.273,8.817
			c-2.048,1.693-3.711,3.886-5.857,5.42c-4.728,3.381-9.578,5.224-15.759,2.976c-12.098-4.4-23.37-10.423-34.73-16.317
			c-0.731-0.386-1.462-0.632-2.199-0.015C320.756,149.975,321.247,150.275,321.738,150.575z"/>
		<path style="fill:#03A19F;" d="M224.03,248.754c0.092,4.172-0.986,8.312-3.761,11.132c-10.354,10.523-20.042,16.614-35.573,10.828
			c-7.446-2.774-13.797-7.159-19.274-13.014c-11.939-12.763-24.814-24.671-35.317-38.736c-4.181-5.599-8.546-11.066-12.158-17.083
			c-2.013-3.353-2.117-6.198,1.224-8.697c0.665-0.497,1.236-1.117,1.879-1.646c9.247-7.594,11.189-7.424,17.762,2.177
			c13.276,19.391,29.534,35.994,47.414,51.102c3.164,2.673,7.016,5.308,10.772,2.781c4.348-2.925,1.629-7.338-0.023-10.833
			c-2.998-6.343-7.093-12.026-11.507-17.487c-10.158-12.568-20.488-25.007-29.674-38.328c-3.098-4.493-2.713-6.484,1.813-9.302
			c1.694-1.055,3.499-1.931,5.248-2.897c3.935-2.173,7.336-1.645,10.134,1.986c14.938,19.386,31.387,37.618,44.557,58.356
			C221.368,235.107,223.899,241.53,224.03,248.754z"/>
		<path style="fill:#03A19F;" d="M344.058,81.714c0.119-1.994,0.253-3.987,0.353-5.981c0.584-11.631,6.846-18.345,17.717-22.032
			c10.995-3.728,21.604-5.411,32.273,0.611c4.133,2.333,7.72,5.208,10.151,9.364c2.061,3.522,2.51,6.9-0.987,9.841
			c-4.972,4.183-9.566,4.955-13.092,2.164c-1.17-0.926-2.185-2.05-3.253-3.101c-3.657-3.599-7.598-6.001-12.929-3.455
			c-6.581,3.143-8.675,6.131-8.131,13.255c1.03,13.497,8.543,23.896,16.99,33.665c2.357,2.726,5.706,4.572,8.446,6.995
			c6.625,5.858,13.929,6.063,21.299,2.108c7.396-3.969,8.995-10.789,2.445-17.554c-2.037-2.104-3.33,0.242-4.676,0.944
			c-6.571,3.425-8.15,3.22-12.581-2.39c-1.732-2.193-2.263-4.828-0.113-6.755c8.802-7.887,17.826-15.531,29.264-19.462
			c2.111-0.726,4.475-2.051,6.341,0.51c2.429,3.335,5.633,6.449,5.472,10.894c-0.078,2.163-2.792,2.647-4.495,3.531
			c-2.162,1.122-2.302,2.061-0.92,4.12c12.7,18.925,4.124,39.256-17.897,47.037c-11.17,3.947-21.11,2.31-31.178-4.313
			c-16.127-10.608-27.354-25.103-36.381-41.675C345.091,94.369,343.909,88.17,344.058,81.714z"/>
		<path style="fill:#03A19F;" d="M636.967,212.54c-1.245,15.869-5.096,32.592-13.655,48.012c-3.142,5.661-6.635,11.143-8.607,17.391
			c-0.647,2.049-2.204,3.216-4.263,3.841c-1.807,0.548-3.592,0.605-5.42,0.255c-14.833-2.848-17.071-7.863-9.173-20.563
			c0.615-0.988,1.178-2.016,1.867-2.95c1.486-2.013,1.402-3.153-1.213-4.355c-9.513-4.373-19.076-8.689-27.946-14.317
			c-1.514-0.961-2.664-0.885-4.071,0.062c-2.068,1.392-4.327,2.511-6.337,3.976c-7.524,5.48-14.791,3.483-21.836-0.822
			c-4.075-2.49-4.344-7.256-0.709-10.496c2.223-1.981,4.746-3.647,7.234-5.305c22.535-15.013,45.934-28.149,72.943-33.4
			C626.731,191.739,637.259,200.215,636.967,212.54z M583.111,229.117c8.025,4.118,14.912,7.654,21.801,11.185
			c2.503,1.283,2.793-0.758,3.211-2.277c1.674-6.092,3.32-12.194,4.85-18.323c0.809-3.241-0.449-4.709-3.651-3.103
			C601.055,220.745,593.089,225.486,583.111,229.117z"/>
		<path style="fill:#03A19F;" d="M248.866,175.967c-1.615,4.732,1.155,4.755,5.154,4.218c6.856-0.921,12.787,1.492,17.633,6.301
			c4.603,4.569,8.996,9.351,13.46,14.059c1.909,2.013,1.967,3.667-0.947,4.82c-2.161,0.855-4.258,1.871-6.376,2.833
			c-4.195,1.906-7.917,1.548-11.459-1.719c-2.054-1.895-4.78-3.043-6.942-4.842c-6.722-5.59-13.291-3.355-19.973,0.015
			c-2.586,1.304-2.984,2.528-0.812,4.725c5.5,5.562,10.741,11.38,16.292,16.888c2.024,2.009,2.398,3.743,0.906,6.081
			c-1.249,1.957-2.15,4.176-3.6,5.959c-4.523,5.561-8.553,5.559-13.119,0.315c-17.709-20.336-35.451-40.643-53.148-60.989
			c-2.51-2.885-4.735-6.021-7.286-8.866c-2.51-2.799-2.427-5.667,0.139-7.936c11.576-10.237,24.428-17.871,40.472-18.12
			c2.086-0.032,4.261,0.727,6.269,1.462C238.288,145.848,249.413,162.255,248.866,175.967z M231.353,172.683
			c-0.53-6.253-3.325-12.05-9.773-15.488c-5.935-3.164-10.481,0.844-15.194,3.477c-2.013,1.125-2.038,2.41-0.438,4.319
			c4.382,5.224,8.361,10.788,12.772,15.986c1.511,1.781,1.798,5.909,5.193,4.675c2.477-0.9,4.593-3.262,5.967-5.838
			C230.924,177.857,231.099,175.683,231.353,172.683z"/>
		<path style="fill:#03A09E;" d="M43.64,238.849c0.321-3.85,2.23-6.081,4.801-7.801c4.979-3.332,9.905-6.762,15.045-9.828
			c11.702-6.979,23.545-13.721,35.278-20.647c4.243-2.505,7.479-1.441,10.476,2.131c8.283,9.874,7.409,14.891-3.804,21.019
			c-0.584,0.319-1.177,0.62-1.766,0.93c-8.32,4.377-8.285,4.349-2.121,11.869c16.357,19.955,32.687,39.939,51.117,58.056
			c2.863,2.815,2.62,4.962,0.158,7.553c-4.07,4.284-9.013,7.317-14.134,10.146c-1.743,0.963-2.65,0.264-3.807-0.913
			c-20.895-21.248-41.804-42.486-59.897-66.257c-1.818-2.389-3.137-2.851-5.551-1.024c-2.641,2-5.823,3.28-8.079,5.805
			c-2.324,2.6-4.973,2.711-7.542,0.75C49.5,247.343,44.871,244.21,43.64,238.849z"/>
		<path style="fill:#009D9B;" d="M335.144,528.371c3.13-2.962,2.582-6.62,1.594-10.125c-2.502-8.878-9.026-14.56-16.337-19.376
			c-12.336-8.126-26.515-11.884-40.25-16.74c-17.5-6.188-35.318-11.642-51.359-21.422c-3.494-2.13-7.564-3.345-11.425-4.836
			c-15.217-5.88-24.679-17.995-33.601-30.756c-8.415-12.035-12.447-25.458-13.021-40.02c-0.032-0.815,0.079-1.657,0.27-2.452
			c0.099-0.414,0.518-0.75,0.965-1.355c3.026,3.251,2.722,9.624,9.03,9.333c0.99,1.695,1.982,3.389,2.975,5.083
			c-3.493,3.133-2.001,4.856,1.687,5.956c0.769,0.229,1.541,0.447,2.311,0.67c1.485,2.196,2.971,4.392,4.452,6.587
			c-2.201,1.907-1.143,3.629,0.665,4.706c1.894,1.129,3.737,2.602,6.123,2.707c1.642,2.643,3.723,4.836,6.492,6.32
			c-0.006,2.249,1.598,3.46,2.995,4.901c10.832,11.177,23.538,19.931,36.558,28.255c12.455,7.963,25.97,13.995,39.618,19.376
			c12.763,5.033,26.476,7.049,40.266,7.721c3.986,1.023,7.971,2.047,11.958,3.069c0.254,5.327,4.78,6.826,8.365,8.843
			c11.921,6.704,16.065,20.949,7.451,32.979c-0.783,1.094-1.545,2.219-0.646,3.626c-0.706,1.76-1.949,3.072-3.467,4.152
			c-1.439-0.194-2.696-2.401-4.243-0.711c-1.322,1.444-0.562,3.302-0.221,4.995c-2.671,2.184-4.167,7.313-9.167,3.658
			c-0.126-0.246-0.253-0.493-0.379-0.74C335.904,537.998,336.044,533.197,335.144,528.371z"/>
		<path style="fill:#03A09E;" d="M673.339,276.123c-8.306-4.315-10.895,2.778-14.559,7.994c-3.828,5.45-7.813,10.795-11.478,16.352
			c-2.03,3.078-4.565,3.599-7.75,2.611c-4.663-1.448-8.766-4.035-12.791-6.678c-3.682-2.418-1.902-5.654-0.507-8.404
			c4.003-7.891,8.87-15.265,14.399-22.166c2.374-2.962,2.722-5.257,1.189-9.218c-3.981-10.29-1.523-20.671,2.195-30.643
			c1.504-4.034,3.516-7.911,5.61-11.685c2.012-3.624,5.108-4.835,9.323-3.643c4.27,1.208,7.968,3.41,11.49,5.888
			c4.034,2.838,2.25,6.634,0.676,9.855c-2.346,4.8-4.881,9.495-5.724,14.835c-0.569,3.602-1.752,8.136,1.958,10.063
			c3.469,1.801,7.347-0.431,10.444-2.91c4.199-3.36,7.568-7.51,10.866-11.692c2.671-3.386,5.203-4.191,9.367-1.95
			c11.641,6.265,16.705,9.869,5.213,23.157C695.28,267.115,686.26,274.111,673.339,276.123z"/>
		<path style="fill:#070808;" d="M150.763,682.955c-14.857,6.994-30.475,12.181-45.391,18.991c-5.386,2.459-8.62,2.285-13.289-1.979
			c-6.049-5.523-13.608-9.423-20.629-13.844c-12.911-8.131-26.128-15.789-37.911-25.607c-2.232-1.859-3.45-3.77-3.399-6.703
			c0.085-4.811-0.096-9.626-0.121-14.439c-0.024-4.588,2.969-9.286,7.394-9.797c12.713-1.469,24.17-7.031,36.284-10.406
			c10.373-2.89,20.857-5.382,31.254-8.191c1.516-0.41,2.402,0.008,3.607,0.732c13.637,8.192,27.323,16.302,40.994,24.438
			c5.894,3.507,11.477,7.428,16.445,12.192c2.32,2.225,2.631,4.493,0.456,6.966c-2.492,0.898-4.958,1.88-7.482,2.683
			c-16.467,5.24-32.526,11.346-48.131,18.938c-6.999,3.405-7.709,8.536-8.795,14.44c-0.507,2.754,0.7,3.168,3.057,2.3
			c2.644-0.973,5.385-1.681,8.031-2.647c11.057-4.033,21.664-9.305,33.284-11.803c2.99-0.643,5.352-1.179,5.459,2.98
			c0,0,0.098-0.027,0.097-0.027C151.232,681.908,150.95,682.358,150.763,682.955z M40.901,637.432
			c5.144,2.899,10.203,5.962,15.447,8.667c14.941,7.704,28.589,17.595,43.397,25.519c1.812,0.969,3.202,1.645,5.396,0.459
			c13.346-7.216,27.695-12.006,41.919-17.117c3.017-1.084,6.596-1.324,8.881-4.08c-3.271-2.483-5.402-6.114-9.068-8.054
			c-6.728-3.56-13.065-7.751-19.435-11.917c-11.703-7.654-23.531-15.09-38.52-8.409c-3.14,1.4-6.768,1.681-10.145,2.574
			C66.131,628.418,54.293,634.402,40.901,637.432z M38.168,649.041c-0.727,4.233,0.388,6.477,2.821,8.841
			c7.13,6.927,16.082,11.081,24.126,16.589c8.613,5.898,17.624,11.215,26.429,16.835c1.749,1.117,2.421,0.928,2.949-1.242
			c1.151-4.734-1.041-11.163-5.097-13.905c-2.476-1.674-4.897-3.447-7.478-4.943c-13.043-7.562-26.189-14.95-38.385-23.877
			c-1.421-1.04-2.959-3.059-4.622-2.293C37.123,645.87,38.394,648.381,38.168,649.041z"/>
		<path style="fill:#08A2A0;" d="M116.44,357.603c3.909-5.116,2.512-10.012,1.336-14.817c-0.591-2.413-1.642-4.71-2.401-7.087
			c-0.525-1.644-0.766-3.457,0.901-4.526c1.64-1.051,3.209-0.059,4.558,0.954c5.602,4.208,8.97,18.84,5.877,25.395
			c-2.282,4.838-4.588,7.303-10.35,10.846c3.644,1.31,5.466,3.878,6.242,7.328c1.858,8.256-3.432,14.304-11.866,13.357
			c-5.716-0.641-10.828-3.118-15.976-5.491c-1.237-0.57-2.848-1.998-4.07-0.476c-1.253,1.559,0.003,3.308,1.038,4.467
			c7.434,8.325,16.471,14.48,26.853,18.429c2.886,1.098,5.126,2.049,4.461,5.313c-0.729,3.575-3.507,4.011-6.631,3.204
			c-8.572-2.216-16.596-5.921-24.782-9.178c-2.634-1.048-5.018-2.231-5.51,2.189c-0.178,1.598-1.441,2.672-3.166,2.629
			c-1.74-0.043-2.752-1.221-3.029-2.816c-0.983-5.671-4.952-7.997-9.905-9.904c-9.327-3.592-17.848-8.85-26.41-13.954
			c-2.73-1.628-3.667-4.269-2.775-7.351c1.212-4.191,3.791-7.053,8.337-7.49c8.983-0.864,16.278,2.807,22.312,9.052
			c3.809,3.942,7.215,8.301,9.797,13.198c0.976,1.852,2.012,3.439,5.035,3.223c-0.999-1.463-1.85-2.691-2.684-3.93
			c-3.223-4.787-3.569-9.554-0.951-13.014c2.96-3.912,7.438-5.04,13.09-3.238c4.748,1.513,9.268,3.688,14.224,4.616
			c2.964,0.555,4.792,0.463,3.297-3.28c-1.01-2.53,0.63-4.422,2.008-6.788c-2.629-0.387-5.006-0.634-7.339-1.099
			c-10.96-2.186-20.264-12.621-20.091-22.457c0.089-5.085,3.108-9.857,7.347-11.533c4.833-1.911,8.367,0.558,11.621,3.628
			C111.078,341.004,114.037,347.392,116.44,357.603z M67.022,387.24c0.147,0.238,0.129,0.963,0.615,0.21
			c-0.232-0.035-0.464-0.071-0.696-0.106c-3.244-5.215-11.217-9.252-17.187-8.225C55.534,382.637,60.844,385.809,67.022,387.24z
			 M109.105,359.647c-1.142-6.136-2.638-11.502-6.231-16.03c-0.982-1.237-2.092-3.051-3.995-2.148
			c-1.607,0.762-1.806,2.628-1.779,4.349C97.206,352.763,101.17,357.52,109.105,359.647z"/>
		<path style="fill:#03A19F;" d="M303.177,204.134c-4.237-0.209-6.623-2.574-9.053-4.872
			c-14.954-14.144-27.785-30.096-39.799-46.741c-4.567-6.328-9.446-12.393-13.162-19.371c-2.575-4.836-0.564-7.452,2.675-10.239
			c3.371-2.901,6.83-4.365,10.473-0.445c2.494,2.684,5.154,5.252,7.349,8.166c9.669,12.835,21.306,23.825,32.573,35.167
			c7.52,7.57,14.43,15.675,21.32,23.819c2.943,3.479,2.23,5.987-0.618,8.327C311.339,200.902,307.153,202.94,303.177,204.134z"/>
		<path style="fill:#009D9B;" d="M194.622,744.109c2.14-0.491,5.21,1.917,6.294-0.594c1.117-2.586-2.297-3.681-3.947-5.067
			c-10.174-8.547-19.159-18.436-29.753-26.491c-7.222-5.49-8.544-12.647-6.268-20.824c1.05-3.772,0.951-7.559,1.098-11.369
			c0.03-0.773-0.344-1.715,0.581-2.227c0.934-0.517,1.581,0.148,2.138,0.734c12.094,12.732,27.511,21.323,40.731,32.676
			c7.799,6.698,14.827,14.296,24.114,20.513c-6.249,4.329-12.16,8.418-18.063,12.519c-2.155,1.497-4.71,2.589-5.593,5.406
			C201.168,749.792,197.464,747.877,194.622,744.109z"/>
		<path style="fill:#08A2A0;" d="M125.9,441.33c-16.029-1.973-31.766-5.416-47.389-9.423c-3.057-0.784-6.15-1.447-9.169-2.356
			c-2.531-0.762-3.636-0.386-3.431,2.615c0.285,4.161-0.337,8.309-1.252,12.372c-0.477,2.116-1.475,4.078-3.052,5.639
			c-1.221,1.209-2.615,2.18-4.435,1.321c-2.023-0.954-2.383-2.754-1.794-4.644c4.076-13.095-1.143-24.412-6.721-35.669
			c-1.524-3.076-4.064-5.732-3.652-9.58c0.26-2.429,0.618-4.675,3.5-5.336c2.967-0.68,4.774,0.667,5.845,3.321
			c1.799,4.461,3.739,8.872,5.345,13.401c0.817,2.302,2.077,3.358,4.47,3.92c20.697,4.858,41.196,10.56,62.12,14.445
			c3.44,0.639,6.168,2.192,5.574,6.24C131.378,440.863,128.912,441.738,125.9,441.33z"/>
		<path style="fill:#0A0B0B;" d="M570.462,470.058c-2.503,3.143-4.373,1.186-6.323-0.733
			c-12.654-12.452-27.042-22.409-42.775-30.648c-21.082-11.041-43.666-17.461-66.623-22.943c-5.457-1.303-5.766-2.288-2.633-6.239
			c3.685-0.552,7.309,0.019,10.836,0.923c16.474,4.222,33.178,7.53,48.809,14.749c21.367,9.869,40.659,22.622,57.631,38.927
			C571.344,465.977,570.725,467.963,570.462,470.058z"/>
		<path style="fill:#0F1110;" d="M334.802,542.775c0.127,0.247,0.253,0.493,0.379,0.74c0.583,2.598-0.68,3.886-2.99,4.885
			c-12.378,5.349-25.188,9.494-38.137,13.087c-16.011,4.443-32.112,8.658-48.346,12.176c-27.895,6.044-55.922,11.476-83.898,17.144
			c-1.133,0.23-2.308,0.257-3.462,0.379c-0.941-1.482-1.427-2.259,1.144-2.859c12.108-2.828,24.072-6.283,36.207-8.979
			c21.561-4.791,43.078-9.759,64.602-14.705c20.892-4.801,41.261-11.157,61.464-18.167c2.96-1.027,5.734-2.596,8.581-3.94
			C331.888,541.808,333.401,541.104,334.802,542.775z"/>
		<path style="fill:#08A2A0;" d="M137.511,377.823c-0.11-12.894,1.351-25.565,5.379-37.868c0.516-1.575,1.06-3.158,1.782-4.645
			c1.351-2.781,3.642-4.011,6.568-2.807c2.751,1.132,3.245,3.554,2.561,6.278c-0.04,0.161-0.091,0.321-0.149,0.477
			c-10.751,28.914-8.05,57.843-0.087,86.774c0.573,2.083,1.281,4.129,1.856,6.211c0.515,1.866,1.741,4.188-0.754,5.258
			c-2.336,1.003-3.553-1.317-4.621-2.894c-3.195-4.716-5.379-9.931-6.98-15.382C139.096,405.711,137.546,391.867,137.511,377.823z"
			/>
		<path style="fill:#019B99;" d="M151.879,682.199c-0.107-4.16-2.469-3.623-5.459-2.98c-11.62,2.498-22.226,7.77-33.284,11.803
			c-2.647,0.965-5.388,1.674-8.031,2.647c-2.357,0.868-3.564,0.454-3.057-2.3c1.086-5.904,1.797-11.035,8.795-14.44
			c15.605-7.593,31.664-13.698,48.131-18.938c2.524-0.803,4.99-1.785,7.482-2.683c0.218,0.527,0.438,1.054,0.658,1.58
			c-11.277,2.609-11.227,11.462-11.218,20.311c0.001,1.133-0.178,2.265-0.274,3.389
			C154.373,681.116,153.429,682.359,151.879,682.199z"/>
		<path style="fill:#F8B16C;" d="M580.943,407.163c-1.768-0.103-4.294,0.429-4.429-2.004c-0.153-2.758,2.715-3.181,4.704-3.555
			c13.065-2.458,26.136-4.91,39.258-7.04c16.567-2.689,33.194-5.01,49.771-7.646c2.667-0.424,4.88-0.284,5.617,2.483
			c0.84,3.152-1.308,4.607-4.081,5.042c-10.177,1.597-20.355,3.196-30.556,4.626c-19.255,2.699-38.525,5.283-57.791,7.906
			C582.613,407.087,581.777,407.103,580.943,407.163z"/>
		<path style="fill:#F8B16C;" d="M599.166,331.707c-0.109,1.885-1.346,2.713-2.844,3.697c-12.537,8.239-26.267,14.266-39.394,21.404
			c-5.847,3.18-11.796,6.173-17.729,9.191c-1.297,0.66-2.622,1.686-4.22,0.966c-1.538-0.694-3.148-1.604-3.463-3.345
			c-0.286-1.584,1.34-2.13,2.479-2.757c9.187-5.052,18.263-10.328,27.619-15.047c9.807-4.947,19.438-10.197,29.022-15.544
			c2.091-1.167,4.111-2.035,6.584-1.081C598.496,329.684,599.167,330.36,599.166,331.707z"/>
		<path style="fill:#F8B16C;" d="M79.414,496.961c-5.092-0.289-9.234-0.518-13.375-0.761c-1.346-0.079-2.621-0.355-3.716-1.245
			c-1.333-1.083-2.725-2.246-2.012-4.14c0.653-1.736,2.357-1.564,3.873-1.428c3.634,0.326,7.265,0.94,10.9,0.963
			c15.731,0.098,31.084-2.342,46.054-7.216c3.56-1.159,7.224-1.993,9.961,1.693c1.193,1.607,1.504,3.301-1.314,3.254
			c-4.465-0.075-8.412,1.809-12.531,3.025C104.588,494.848,91.56,496.098,79.414,496.961z"/>
		<path style="fill:#F8B16C;" d="M131.281,556.194c-2.301-0.214-4.485-0.718-5.118-2.818c-0.761-2.526,1.56-3.518,3.365-4.161
			c14.639-5.211,28.146-12.825,42.031-19.638c1.645-0.807,3.322-1.583,5.247-1.326c1.663,0.222,2.761,1.06,3.061,2.786
			c0.276,1.589-0.538,2.423-1.886,3.089c-14.325,7.069-28.297,14.863-43.095,20.956C133.668,555.582,132.36,555.866,131.281,556.194
			z"/>
		<path style="fill:#F8B16C;" d="M615.104,457.355c13.444,0.859,26.657,1.976,39.656,4.869c2.707,0.602,5.716,1.319,4.83,4.901
			c-0.83,3.354-3.501,3.064-6.448,2.311c-12.267-3.133-24.92-3.648-37.423-5.194c-2.457-0.304-4.898-0.845-7.3-1.456
			c-1.295-0.329-2.565-1.038-2.404-2.722c0.156-1.638,1.508-2.189,2.818-2.354C610.966,457.442,613.134,457.453,615.104,457.355z"/>
		<path style="fill:#F8B16C;" d="M544.688,289.985c-0.329,2.073-1.442,3.652-3,5.016c-7.739,6.777-16.384,12.514-23.236,20.315
			c-1.163,1.325-2.755,1.27-3.977,0.01c-1.504-1.55-2.353-3.46-0.566-5.292c3.713-3.807,7.416-7.648,11.405-11.155
			c4.36-3.835,9.042-7.305,13.574-10.945c1.021-0.82,1.955-2.059,3.401-0.776C543.216,287.98,544.904,288.189,544.688,289.985z"/>
		<path style="fill:#F8B16C;" d="M524.519,374.335c-0.342,1.822-1.599,2.902-3.163,3.587c-7.613,3.334-15.238,6.64-22.888,9.886
			c-1.702,0.722-3.755,1.348-4.93-0.652c-1.429-2.433,0.735-3.623,2.333-4.717c7.026-4.812,15.349-7.125,22.546-11.695
			C521.169,368.997,524.721,371.485,524.519,374.335z"/>
		<path style="fill:#F8B16C;" d="M96.982,569.501c3.113-0.151,4.731,0.255,5.353,2.115c0.674,2.015-1.026,2.623-2.371,3.125
			c-8.202,3.059-16.487,5.894-24.202,10.136c-1.671,0.919-3.117,0.215-4.128-1.526c-1-1.722-0.361-2.871,1.044-3.755
			C80.587,574.62,89.185,571.36,96.982,569.501z"/>
		<path style="fill:#F8B16C;" d="M168.688,475.231c-0.458,1.965-2.197,2.562-3.746,2.748c-6.695,0.803-12.884,2.899-18.714,6.288
			c-2.154,1.252-4.195,0.483-5.402-1.766c-1.402-2.612,0.999-3.03,2.435-3.918c6.188-3.827,13.35-4.846,20.185-6.721
			C165.674,471.251,168.098,472.233,168.688,475.231z"/>
		<path style="fill:#F8B16C;" d="M216.851,515.853c-0.113,1.6-1.274,2.01-2.355,2.374c-6.295,2.12-12.508,4.411-18.315,7.707
			c-1.551,0.88-3.334,0.915-4.439-0.77c-1.283-1.956,0.316-3.179,1.651-4.04c5.77-3.723,12.316-5.678,18.776-7.74
			C214.215,512.729,216.026,513.77,216.851,515.853z"/>
		<path style="fill:#F8B16C;" d="M258.92,538.278c-0.307,0.395-0.747,1.075-1.297,1.649c-2.985,3.11-5.986,6.204-9.004,9.281
			c-1.375,1.402-2.988,2.334-4.771,0.845c-2.109-1.761,0.029-2.897,0.918-4.038c2.546-3.264,5.184-6.458,7.845-9.629
			c1.264-1.507,2.957-1.338,4.572-0.726C258.124,536.016,258.853,536.736,258.92,538.278z"/>
		<path style="fill:#F8B16C;" d="M609.431,319.176c2.432,0.049,4.087,1.59,3.963,4.305c-0.112,2.447-1.82,3.822-4.366,3.853
			c-2.705,0.033-4.737-1.157-4.634-3.982C604.488,320.753,606.229,319.178,609.431,319.176z"/>
		<path style="fill:#F8B16C;" d="M673.382,465.417c2.409,0.551,3.841,1.933,3.714,4.474c-0.123,2.469-1.503,4.175-3.979,4.135
			c-2.745-0.045-4.137-1.943-3.944-4.621C669.35,466.95,670.938,465.644,673.382,465.417z"/>
		<path style="fill:#F8B16C;" d="M120.747,560.892c-0.577,2.249-1.335,4.309-3.803,4.18c-2.344-0.122-3.354-2.256-3.639-4.174
			c-0.371-2.502,1.997-3.091,3.669-2.964C118.576,558.057,120.558,558.78,120.747,560.892z"/>
		<path style="fill:#0A0B0B;" d="M580.675,482.131c-1.577,1.054-3.103,1.733-4.699-0.056c-1.683-1.886-0.892-3.576,0.233-5.293
			C581.255,475.168,581.927,475.973,580.675,482.131z"/>
		<path style="fill:#F8B16C;" d="M549.174,408.453c0.128-1.972,1.447-2.81,3.02-2.691c2.25,0.171,3.573,1.603,3.654,3.972
			c0.066,1.946-0.968,2.719-2.804,2.545C550.688,412.057,549.605,410.543,549.174,408.453z"/>
		<path style="fill:#F8B16C;" d="M230.37,506.218c-0.237,1.398-1.235,1.935-2.496,1.874c-1.712-0.083-2.829-1.052-2.903-2.808
			c-0.065-1.563,1.069-1.912,2.368-1.802C229.002,503.623,230.171,504.374,230.37,506.218z"/>
		<path style="fill:#019B99;" d="M150.763,682.955c0.188-0.597,0.47-1.047,1.214-0.783
			C151.572,682.433,151.167,682.694,150.763,682.955z"/>
		<path style="fill:#009D9B;" d="M567.801,616.419c1.818,5.145,4.564,2.015,6.059,0.201c2.925-3.549,5.208-7.626,7.762-11.481
			c0.689-1.039,0.747-2.625,2.423-2.816l-0.083-0.074c-2.844,16.558-8.556,32.028-17.479,46.296
			c-9.146,14.624-20.728,26.969-33.297,38.808c-12.788,12.045-28.455,19.465-42.248,29.789
			c-27.14,20.314-56.534,37.352-83.625,57.828c-18.791,14.202-39.199,26.255-58.755,39.46c-10.056,6.79-19.74,14.142-30.708,19.483
			c-1.466,0.714-2.956,1.376-4.705,2.188c-0.751-7.865,1.058-15.158,1.683-22.512c0.23-2.709,3.012-4.167,5.344-5.512
			c25.179-14.527,49.102-31.126,74.573-45.174c3.273-1.805,6.374-3.938,4.003-8.513c3.696-2.798,7.394-5.596,11.092-8.392
			c1.692,1.329,3.361,2.558,5.621,1.028c2.37-1.604,1.439-3.606,0.825-5.602c2.8-2.614,6.017-4.623,9.359-6.447
			c3.069,2.908,5.21,0.238,7.276-1.429c1.257-1.015,2.23-2.354,3.681-3.263c10.411-6.515,21.022-12.752,31.09-19.765
			c21.539-15.003,43.011-30.119,63.634-46.382c5.347-4.217,10.608-8.583,15.548-13.261c3.15-2.982,6.883-6.245,3.963-11.528
			c1.203-1.574,2.407-3.148,3.612-4.716c3.532,1.373,6.32-0.106,8.174-2.846c1.456-2.153,0.246-4.084-2.085-5.152
			C562.959,623.231,565.38,619.825,567.801,616.419z"/>
		<path style="fill:#050808;" d="M550.837,639.351c2.921,5.283-0.813,8.546-3.963,11.528c-4.94,4.678-10.201,9.044-15.548,13.261
			c-20.623,16.263-42.095,31.379-63.634,46.382c-10.068,7.013-20.679,13.25-31.09,19.765c-1.451,0.908-2.424,2.248-3.681,3.263
			c-2.066,1.668-4.207,4.337-7.276,1.429c-1.566-3.43,1.421-4.379,3.298-5.681c13.903-9.65,28.1-18.893,41.763-28.869
			c18.77-13.704,37.261-27.8,55.642-42.025c6.671-5.162,13.344-10.452,18.834-16.975
			C546.712,639.611,548.436,638.643,550.837,639.351z"/>
		<path style="fill:#070808;" d="M325.151,482.904c-13.791-0.672-27.504-2.688-40.266-7.721
			c-13.648-5.382-27.163-11.413-39.618-19.376c-13.019-8.324-25.725-17.078-36.558-28.255c-1.397-1.441-3.001-2.652-2.995-4.901
			c3.022-2.273,5.26-0.366,7.317,1.547c21.133,19.652,45.239,34.469,72.263,44.552c11.244,4.195,22.948,6.476,34.775,8.224
			c1.805,0.267,3.586,0.705,5.394,0.939c1.753,0.227,1.943,1.547,2.23,2.849C328.209,483.091,325.915,482.09,325.151,482.904z"/>
		<path style="fill:#0A0B0B;" d="M352.28,531.421c-0.899-1.406-0.138-2.532,0.646-3.626c8.615-12.03,4.47-26.275-7.451-32.979
			c-3.586-2.017-8.111-3.516-8.365-8.843c14.387,0.569,28.644,17.199,26.078,30.995c-0.79,4.248-2.323,8.575-5.316,12.114
			C356.326,530.909,354.648,531.843,352.28,531.421z"/>
		<path style="fill:#0F1110;" d="M199.223,416.331c-2.386-0.104-4.229-1.578-6.123-2.707c-1.807-1.077-2.865-2.799-0.665-4.706
			c2.758-1.123,5.12-0.783,6.897,1.819C200.628,412.635,201.23,414.505,199.223,416.331z"/>
		<path style="fill:#0A0B0B;" d="M560.538,626.637c2.33,1.068,3.541,2.999,2.085,5.152c-1.853,2.74-4.642,4.219-8.174,2.846
			C554.637,630.562,556.724,627.941,560.538,626.637z"/>
		<path style="fill:#070808;" d="M416.286,741.425c0.614,1.996,1.545,3.999-0.825,5.602c-2.26,1.53-3.929,0.301-5.621-1.028
			c-0.448-1.718-1.38-3.492,0.512-4.957C412.435,739.429,414.376,740.233,416.286,741.425z"/>
		<path style="fill:#0A0B0B;" d="M187.983,402.332c-0.77-0.223-1.542-0.441-2.311-0.67c-3.688-1.1-5.18-2.823-1.687-5.956
			c1.51,0.312,3.149-0.331,4.529,1.058C190.685,398.949,190.664,400.713,187.983,402.332z"/>
		<path style="fill:#0A0B0B;" d="M344.349,539.857c-0.341-1.693-1.1-3.55,0.221-4.995c1.547-1.69,2.803,0.517,4.243,0.711
			c-0.575,1.478,2.241,2.493,0.819,3.744C348.222,540.557,346.247,541.024,344.349,539.857z"/>
		<path style="fill:#009D9B;" d="M467.178,339.554c-1.491,7.612-1.107,14.295-1.552,20.928c-0.219,3.266-1.067,4.995-4.778,2.66
			c-15.583-9.806-32.268-17.949-45.755-30.89c-2.875-2.759-6.277-5.064-10.036-6.427c-3.317-1.203-4.264-3.024-3.633-6.396
			c0.794-4.239,1.367-8.546,1.645-12.849c0.304-4.706,2.995-5.124,6.408-3.773c4.002,1.585,8.148,3.155,11.662,5.563
			c14.137,9.685,28.903,18.363,43.373,27.511C466.399,337.075,467.799,338.143,467.178,339.554z"/>
		<path style="fill:#019B99;" d="M396.297,301.564c-0.758,6.273-1.582,12.539-2.236,18.822c-0.206,1.984-0.938,2.922-2.985,3.197
			c-15.939,2.139-28.348,10.809-39.714,21.475c-2.791,2.62-4.499,6.054-7.1,8.982c-4.492-12.206-1.419-29.174,12.387-35.821
			c10.483-5.048,20.641-10.786,31.515-15.013c2.479-0.964,4.959-1.941,7.656-2.122C395.977,301.247,396.136,301.407,396.297,301.564
			z"/>
		<path style="fill:#019B99;" d="M314.446,243.817c-8.535,3.292-17.046,6.649-25.619,9.84c-3.087,1.149-11.028-4.975-10.917-8.595
			c0.198-6.454,0.848-12.893,1.238-19.343c0.15-2.488,1.317-2.338,2.846-1.214C292.037,231.887,302.649,238.277,314.446,243.817z"/>
		<path style="fill:#019B99;" d="M395.821,301.085c0.237-0.103,0.474-0.206,0.711-0.31c-0.08,0.262-0.16,0.523-0.238,0.787
			C396.136,301.407,395.977,301.247,395.821,301.085z"/>
		<path style="fill:#009D9B;" d="M213.295,758.432c23.334,14.073,46.475,28.064,69.656,41.989
			c6.954,4.177,14.004,8.201,21.682,10.959c3.454,1.241,3.795,3.63,2.769,6.752c-1.46,4.444-1.932,9.076-2.301,13.715
			c-0.384,4.818-0.854,5.07-5.302,2.615c-4.946-2.731-10.079-5.195-14.753-8.337c-21.807-14.653-45.804-25.558-67.819-39.858
			c-4.737-3.077-8.183-5.745-6.543-12.431C211.913,768.824,211.686,763.426,213.295,758.432z"/>
		<path style="fill:#019B99;" d="M160.557,604.86c15.884,12.47,31.169,24.109,48.285,34.355c-5.054,3.538-9.95,5.37-14.708,7.475
			c-1.307,0.578-2.345-0.036-3.254-0.651c-10.822-7.323-22.19-13.887-31.768-22.948c-1.289-1.22-2.604-2.144-1.784-4.106
			C159.065,614.824,159.1,610.253,160.557,604.86z"/>
		<path style="fill:#009D9B;" d="M584.046,602.324c0.099-0.169,0.197-0.337,0.296-0.506c-0.003,0.094,0.031,0.233-0.017,0.274
			c-0.096,0.081-0.238,0.108-0.361,0.158C583.963,602.25,584.046,602.324,584.046,602.324z"/>
		<path style="fill:#FCFDFD;" d="M321.738,150.575c-0.491-0.3-0.982-0.6-1.474-0.9c0.738-0.617,1.469-0.371,2.199,0.015
			C322.222,149.983,321.98,150.279,321.738,150.575z"/>
		<path style="fill:#FCFDFD;" d="M583.111,229.117c9.978-3.631,17.944-8.372,26.211-12.519c3.203-1.606,4.46-0.138,3.651,3.103
			c-1.53,6.13-3.176,12.231-4.85,18.323c-0.417,1.519-0.708,3.56-3.211,2.277C598.023,236.771,591.137,233.235,583.111,229.117z"/>
		<path style="fill:#FCFDFD;" d="M231.353,172.683c-0.254,3-0.428,5.174-1.473,7.132c-1.374,2.576-3.491,4.938-5.967,5.838
			c-3.395,1.234-3.682-2.895-5.193-4.675c-4.411-5.198-8.39-10.762-12.772-15.986c-1.601-1.909-1.576-3.194,0.438-4.319
			c4.713-2.633,9.259-6.641,15.194-3.477C228.028,160.633,230.823,166.43,231.353,172.683z"/>
		<path style="fill:#BCECE9;" d="M40.901,637.432c13.392-3.03,25.23-9.014,37.873-12.358c3.377-0.893,7.005-1.175,10.145-2.574
			c14.989-6.681,26.817,0.755,38.52,8.409c6.369,4.166,12.706,8.356,19.435,11.917c3.666,1.94,5.798,5.571,9.068,8.054
			c-2.286,2.756-5.864,2.995-8.881,4.08c-14.224,5.112-28.573,9.901-41.919,17.117c-2.194,1.186-3.584,0.511-5.396-0.459
			c-14.809-7.924-28.456-17.814-43.397-25.519C51.104,643.395,46.045,640.332,40.901,637.432z"/>
		<path style="fill:#019B99;" d="M38.168,649.041c0.226-0.66-1.045-3.171,0.742-3.995c1.663-0.766,3.201,1.253,4.622,2.293
			c12.196,8.927,25.342,16.314,38.385,23.877c2.581,1.496,5.002,3.269,7.478,4.943c4.056,2.742,6.248,9.171,5.097,13.905
			c-0.528,2.17-1.2,2.359-2.949,1.242c-8.805-5.621-17.816-10.937-26.429-16.835c-8.044-5.509-16.995-9.662-24.126-16.589
			C38.556,655.518,37.441,653.274,38.168,649.041z"/>
		<path style="fill:#FCFDFD;" d="M109.105,359.647c-7.935-2.128-11.899-6.884-12.005-13.83c-0.026-1.721,0.173-3.587,1.779-4.349
			c1.903-0.903,3.013,0.911,3.995,2.148C106.467,348.145,107.963,353.511,109.105,359.647z"/>
		<path style="fill:#FCFDFD;" d="M67.021,387.24c-6.177-1.431-11.487-4.604-17.267-8.121c5.97-1.026,13.943,3.01,17.187,8.225
			L67.021,387.24z"/>
		<path style="fill:#FCFDFD;" d="M66.941,387.345c0.232,0.035,0.464,0.071,0.696,0.106c-0.486,0.752-0.468,0.028-0.615-0.21
			C67.021,387.24,66.941,387.345,66.941,387.345z"/>
	</g>
</g>
</svg>
